<svg id="Group_327" data-name="Group 327" xmlns="http://www.w3.org/2000/svg" xmlns:xlink="http://www.w3.org/1999/xlink" width="46.766" height="46.186" viewBox="0 0 46.766 46.186">
  <defs>
    <clipPath id="clip-path">
      <rect id="Rectangle_166" data-name="Rectangle 166" width="46.766" height="46.186" fill="#ff730f"/>
    </clipPath>
  </defs>
  <g id="Group_326" data-name="Group 326" clip-path="url(#clip-path)">
    <path id="Path_863" data-name="Path 863" d="M40.486,13.916A13.932,13.932,0,0,1,26.57,0h4.448a9.478,9.478,0,0,0,9.467,9.467A9.478,9.478,0,0,0,49.953,0H54.4A13.932,13.932,0,0,1,40.486,13.916" transform="translate(-17.103)" fill="#ff730f"/>
    <path id="Path_864" data-name="Path 864" d="M0,13.916V9.467A9.478,9.478,0,0,0,9.467,0h4.448A13.932,13.932,0,0,1,0,13.916" fill="#ff730f"/>
    <path id="Path_865" data-name="Path 865" d="M106.113,13.916A13.932,13.932,0,0,1,92.2,0h4.448a9.478,9.478,0,0,0,9.467,9.467Z" transform="translate(-59.347)" fill="#ff730f"/>
    <rect id="Rectangle_162" data-name="Rectangle 162" width="9.421" height="4.448" transform="translate(6.981 41.738)" fill="#ff730f"/>
    <rect id="Rectangle_163" data-name="Rectangle 163" width="46.435" height="4.448" transform="translate(0.165 17.784)" fill="#ff730f"/>
    <rect id="Rectangle_164" data-name="Rectangle 164" width="46.435" height="4.448" transform="translate(0.165 24.704)" fill="#ff730f"/>
    <rect id="Rectangle_165" data-name="Rectangle 165" width="9.421" height="4.448" transform="translate(30.364 41.738)" fill="#ff730f"/>
  </g>
</svg>
