<svg id="Group_329" data-name="Group 329" xmlns="http://www.w3.org/2000/svg" xmlns:xlink="http://www.w3.org/1999/xlink" width="50.959" height="56.46" viewBox="0 0 50.959 56.46">
  <defs>
    <clipPath id="clip-path">
      <rect id="Rectangle_183" data-name="Rectangle 183" width="50.959" height="56.46" fill="#ff730f"/>
    </clipPath>
  </defs>
  <rect id="Rectangle_176" data-name="Rectangle 176" width="50.959" height="4.783" transform="translate(0 51.678)" fill="#ff730f"/>
  <rect id="Rectangle_177" data-name="Rectangle 177" width="34.599" height="4.782" transform="translate(7.101 53.606) rotate(-78.819)" fill="#ff730f"/>
  <rect id="Rectangle_178" data-name="Rectangle 178" width="4.782" height="34.599" transform="translate(32.456 20.591) rotate(-11.186)" fill="#ff730f"/>
  <rect id="Rectangle_179" data-name="Rectangle 179" width="30.082" height="4.782" transform="translate(10.438 16.128)" fill="#ff730f"/>
  <g id="Group_330" data-name="Group 330">
    <g id="Group_329-2" data-name="Group 329" clip-path="url(#clip-path)">
      <path id="Path_867" data-name="Path 867" d="M75.68,9.254a8.024,8.024,0,0,1-.18,3.859H70.332c.793-1.678.789-1.72.6-3.3-.08-.684-.193-1.623-.281-2.919a6.307,6.307,0,0,1,1.565-4.916A6.836,6.836,0,0,1,76.9,0l-.013,4.782h.038a1.988,1.988,0,0,0-1.225.474,1.893,1.893,0,0,0-.273,1.309c.08,1.179.176,2.014.256,2.689" transform="translate(-43.393)" fill="#ff730f"/>
      <path id="Path_868" data-name="Path 868" d="M49.7,9.254a7.978,7.978,0,0,1-.185,3.859H44.354c.788-1.678.784-1.72.6-3.3-.084-.684-.193-1.623-.281-2.919a6.275,6.275,0,0,1,1.565-4.916A6.836,6.836,0,0,1,50.919,0l-.013,4.782h.038a1.979,1.979,0,0,0-1.225.474,1.873,1.873,0,0,0-.277,1.309c.08,1.179.18,2.018.26,2.689" transform="translate(-27.365)" fill="#ff730f"/>
      <rect id="Rectangle_180" data-name="Rectangle 180" width="6.917" height="4.782" transform="matrix(0.826, -0.563, 0.563, 0.826, 24.42, 38.014)" fill="#ff730f"/>
      <rect id="Rectangle_181" data-name="Rectangle 181" width="4.782" height="7.529" transform="matrix(0.563, -0.826, 0.826, 0.563, 17.694, 38.067)" fill="#ff730f"/>
      <rect id="Rectangle_182" data-name="Rectangle 182" width="4.782" height="7.863" transform="translate(22.87 38.067)" fill="#ff730f"/>
    </g>
  </g>
</svg>
