<svg xmlns="http://www.w3.org/2000/svg" width="46.044" height="46.012" viewBox="0 0 46.044 46.012">
  <g id="Group_322" data-name="Group 322" transform="translate(0.001)">
    <path id="Path_854" data-name="Path 854" d="M24.656,20.552H42.264v21.68H24.656ZM3.778,11.176l9.541-4.212V3.779h7.559V42.233H3.778ZM9.54,0V4.5L0,8.714v37.3H46.043V16.774H24.656V0Z" transform="translate(0)" fill="#ff730f"/>
    <rect id="Rectangle_148" data-name="Rectangle 148" width="3.779" height="38.223" transform="translate(9.537 4.598)" fill="#ff730f"/>
    <path id="Path_855" data-name="Path 855" d="M95.207,37.63H91.429V32.946H78.58V29.167H95.207Z" transform="translate(-54.798 -20.339)" fill="#ff730f"/>
    <path id="Path_856" data-name="Path 856" d="M103.716,121.149H99.937V113.46H96.313v6.329H92.534V109.681h11.182Z" transform="translate(-64.529 -76.486)" fill="#ff730f"/>
    <rect id="Rectangle_149" data-name="Rectangle 149" width="2.952" height="3.779" transform="translate(15.661 7.295)" fill="#ff730f"/>
    <rect id="Rectangle_150" data-name="Rectangle 150" width="2.952" height="3.779" transform="translate(15.661 15.241)" fill="#ff730f"/>
    <rect id="Rectangle_151" data-name="Rectangle 151" width="2.952" height="3.779" transform="translate(15.661 23.188)" fill="#ff730f"/>
    <rect id="Rectangle_152" data-name="Rectangle 152" width="2.952" height="3.779" transform="translate(15.661 31.134)" fill="#ff730f"/>
    <rect id="Rectangle_153" data-name="Rectangle 153" width="7.674" height="3.779" transform="translate(29.895 24.638)" fill="#ff730f"/>
  </g>
</svg>
