<svg xmlns="http://www.w3.org/2000/svg" width="328.088" height="469" viewBox="0 0 328.088 469">
  <g id="Group_376" data-name="Group 376" transform="translate(-1043 -768)">
    <g id="Group_213" data-name="Group 213" transform="translate(1043 1007.954)" opacity="0.2">
      <path id="Path_324" data-name="Path 324" d="M481.6,0,470.206,22.2l15.062-10.112L493.353,22.2Z" transform="translate(-165.265)" fill="#b3b3b3"/>
      <path id="Path_325" data-name="Path 325" d="M414.424,0,403.034,22.2,418.1,12.087,426.181,22.2Z" transform="translate(-141.656)" fill="#b3b3b3"/>
      <path id="Path_326" data-name="Path 326" d="M347.251,0,335.862,22.2l15.062-10.112L359.008,22.2Z" transform="translate(-118.046)" fill="#b3b3b3"/>
      <path id="Path_327" data-name="Path 327" d="M280.079,0,268.689,22.2l15.062-10.112L291.836,22.2Z" transform="translate(-94.437)" fill="#b3b3b3"/>
      <path id="Path_328" data-name="Path 328" d="M212.906,0,201.517,22.2l15.062-10.112L224.663,22.2Z" transform="translate(-70.828)" fill="#b3b3b3"/>
      <path id="Path_329" data-name="Path 329" d="M145.734,0,134.344,22.2l15.062-10.112L157.49,22.2Z" transform="translate(-47.219)" fill="#b3b3b3"/>
      <path id="Path_330" data-name="Path 330" d="M78.562,0,67.172,22.2,82.234,12.087,90.318,22.2Z" transform="translate(-23.609)" fill="#b3b3b3"/>
      <path id="Path_331" data-name="Path 331" d="M11.389,0,0,22.2,15.062,12.087,23.146,22.2Z" fill="#b3b3b3"/>
      <path id="Path_332" data-name="Path 332" d="M470.207,85.989l15.062-10.112,8.084,10.112L481.6,63.79Z" transform="translate(-165.265 -22.42)" fill="#b3b3b3"/>
      <path id="Path_333" data-name="Path 333" d="M414.424,63.79l-11.389,22.2L418.1,75.877l8.084,10.112Z" transform="translate(-141.656 -22.42)" fill="#b3b3b3"/>
      <path id="Path_334" data-name="Path 334" d="M347.251,63.79l-11.389,22.2,15.061-10.112,8.084,10.112Z" transform="translate(-118.047 -22.42)" fill="#b3b3b3"/>
      <path id="Path_335" data-name="Path 335" d="M280.079,63.79l-11.389,22.2,15.062-10.112,8.084,10.112Z" transform="translate(-94.437 -22.42)" fill="#b3b3b3"/>
      <path id="Path_336" data-name="Path 336" d="M212.906,63.79l-11.389,22.2,15.062-10.112,8.084,10.112Z" transform="translate(-70.828 -22.42)" fill="#b3b3b3"/>
      <path id="Path_337" data-name="Path 337" d="M145.734,63.79l-11.389,22.2,15.062-10.112,8.084,10.112Z" transform="translate(-47.219 -22.42)" fill="#b3b3b3"/>
      <path id="Path_338" data-name="Path 338" d="M78.561,63.79l-11.389,22.2L82.234,75.877l8.084,10.112Z" transform="translate(-23.609 -22.42)" fill="#b3b3b3"/>
      <path id="Path_339" data-name="Path 339" d="M0,85.989,15.062,75.877l8.083,10.112L11.389,63.79Z" transform="translate(0 -22.42)" fill="#b3b3b3"/>
      <path id="Path_340" data-name="Path 340" d="M470.207,149.778l15.062-10.111,8.084,10.111-11.756-22.2Z" transform="translate(-165.265 -44.841)" fill="#b3b3b3"/>
      <path id="Path_341" data-name="Path 341" d="M414.424,127.58l-11.389,22.2L418.1,139.667l8.084,10.112Z" transform="translate(-141.656 -44.841)" fill="#b3b3b3"/>
      <path id="Path_342" data-name="Path 342" d="M347.251,127.58l-11.389,22.2,15.061-10.112,8.084,10.112Z" transform="translate(-118.047 -44.841)" fill="#b3b3b3"/>
      <path id="Path_343" data-name="Path 343" d="M280.079,127.58l-11.389,22.2,15.062-10.112,8.084,10.112Z" transform="translate(-94.437 -44.841)" fill="#b3b3b3"/>
      <path id="Path_344" data-name="Path 344" d="M212.906,127.58l-11.389,22.2,15.062-10.112,8.084,10.112Z" transform="translate(-70.828 -44.841)" fill="#b3b3b3"/>
      <path id="Path_345" data-name="Path 345" d="M145.734,127.58l-11.389,22.2,15.062-10.112,8.084,10.112Z" transform="translate(-47.219 -44.841)" fill="#b3b3b3"/>
      <path id="Path_346" data-name="Path 346" d="M78.561,127.58l-11.389,22.2,15.062-10.112,8.084,10.112Z" transform="translate(-23.609 -44.841)" fill="#b3b3b3"/>
      <path id="Path_347" data-name="Path 347" d="M0,149.778l15.062-10.111,8.083,10.111-11.756-22.2Z" transform="translate(0 -44.841)" fill="#b3b3b3"/>
      <path id="Path_348" data-name="Path 348" d="M470.207,213.569l15.062-10.112,8.084,10.112-11.756-22.2Z" transform="translate(-165.265 -67.261)" fill="#b3b3b3"/>
      <path id="Path_349" data-name="Path 349" d="M414.424,191.37l-11.389,22.2L418.1,203.457l8.084,10.112Z" transform="translate(-141.656 -67.261)" fill="#b3b3b3"/>
      <path id="Path_350" data-name="Path 350" d="M347.251,191.37l-11.389,22.2,15.061-10.112,8.084,10.112Z" transform="translate(-118.047 -67.261)" fill="#b3b3b3"/>
      <path id="Path_351" data-name="Path 351" d="M280.079,191.37l-11.389,22.2,15.062-10.112,8.084,10.112Z" transform="translate(-94.437 -67.261)" fill="#b3b3b3"/>
      <path id="Path_352" data-name="Path 352" d="M212.906,191.37l-11.389,22.2,15.062-10.112,8.084,10.112Z" transform="translate(-70.828 -67.261)" fill="#b3b3b3"/>
      <path id="Path_353" data-name="Path 353" d="M145.734,191.37l-11.389,22.2,15.062-10.112,8.084,10.112Z" transform="translate(-47.219 -67.261)" fill="#b3b3b3"/>
      <path id="Path_354" data-name="Path 354" d="M78.561,191.37l-11.389,22.2,15.062-10.112,8.084,10.112Z" transform="translate(-23.609 -67.261)" fill="#b3b3b3"/>
      <path id="Path_355" data-name="Path 355" d="M0,213.569l15.062-10.112,8.083,10.112-11.756-22.2Z" transform="translate(0 -67.261)" fill="#b3b3b3"/>
      <path id="Path_356" data-name="Path 356" d="M470.207,277.358l15.062-10.111,8.084,10.111-11.756-22.2Z" transform="translate(-165.265 -89.681)" fill="#b3b3b3"/>
      <path id="Path_357" data-name="Path 357" d="M414.424,255.159l-11.389,22.2L418.1,267.247l8.084,10.112Z" transform="translate(-141.656 -89.682)" fill="#b3b3b3"/>
      <path id="Path_358" data-name="Path 358" d="M347.251,255.159l-11.389,22.2,15.061-10.112,8.084,10.112Z" transform="translate(-118.047 -89.682)" fill="#b3b3b3"/>
      <path id="Path_359" data-name="Path 359" d="M280.079,255.159l-11.389,22.2,15.062-10.112,8.084,10.112Z" transform="translate(-94.437 -89.682)" fill="#b3b3b3"/>
      <path id="Path_360" data-name="Path 360" d="M212.906,255.159l-11.389,22.2,15.062-10.112,8.084,10.112Z" transform="translate(-70.828 -89.682)" fill="#b3b3b3"/>
      <path id="Path_361" data-name="Path 361" d="M145.734,255.159l-11.389,22.2,15.062-10.112,8.084,10.112Z" transform="translate(-47.219 -89.682)" fill="#b3b3b3"/>
      <path id="Path_362" data-name="Path 362" d="M78.561,255.159l-11.389,22.2,15.062-10.112,8.084,10.112Z" transform="translate(-23.609 -89.682)" fill="#b3b3b3"/>
      <path id="Path_363" data-name="Path 363" d="M0,277.358l15.062-10.111,8.083,10.111-11.756-22.2Z" transform="translate(0 -89.681)" fill="#b3b3b3"/>
      <path id="Path_364" data-name="Path 364" d="M470.207,341.148l15.062-10.112,8.084,10.112-11.756-22.2Z" transform="translate(-165.265 -112.102)" fill="#b3b3b3"/>
      <path id="Path_365" data-name="Path 365" d="M403.034,341.148,418.1,331.036l8.085,10.112-11.756-22.2Z" transform="translate(-141.656 -112.102)" fill="#b3b3b3"/>
      <path id="Path_366" data-name="Path 366" d="M335.862,341.148l15.061-10.112,8.085,10.112-11.757-22.2Z" transform="translate(-118.047 -112.102)" fill="#b3b3b3"/>
      <path id="Path_367" data-name="Path 367" d="M268.69,341.148l15.061-10.112,8.085,10.112-11.756-22.2Z" transform="translate(-94.437 -112.102)" fill="#b3b3b3"/>
      <path id="Path_368" data-name="Path 368" d="M201.517,341.148l15.062-10.112,8.084,10.112-11.756-22.2Z" transform="translate(-70.828 -112.102)" fill="#b3b3b3"/>
      <path id="Path_369" data-name="Path 369" d="M134.345,341.148l15.061-10.112,8.084,10.112-11.756-22.2Z" transform="translate(-47.219 -112.102)" fill="#b3b3b3"/>
      <path id="Path_370" data-name="Path 370" d="M67.172,341.148l15.061-10.112,8.084,10.112-11.756-22.2Z" transform="translate(-23.609 -112.102)" fill="#b3b3b3"/>
      <path id="Path_371" data-name="Path 371" d="M0,341.148l15.062-10.112,8.083,10.112-11.756-22.2Z" transform="translate(0 -112.102)" fill="#b3b3b3"/>
    </g>
    <g id="Group_212" data-name="Group 212" transform="translate(1043 768)" opacity="0.2">
      <path id="Path_324-2" data-name="Path 324" d="M481.6,0,470.206,22.2l15.062-10.112L493.353,22.2Z" transform="translate(-165.265)" fill="#b3b3b3"/>
      <path id="Path_325-2" data-name="Path 325" d="M414.424,0,403.034,22.2,418.1,12.087,426.181,22.2Z" transform="translate(-141.656)" fill="#b3b3b3"/>
      <path id="Path_326-2" data-name="Path 326" d="M347.251,0,335.862,22.2l15.062-10.112L359.008,22.2Z" transform="translate(-118.046)" fill="#b3b3b3"/>
      <path id="Path_327-2" data-name="Path 327" d="M280.079,0,268.689,22.2l15.062-10.112L291.836,22.2Z" transform="translate(-94.437)" fill="#b3b3b3"/>
      <path id="Path_328-2" data-name="Path 328" d="M212.906,0,201.517,22.2l15.062-10.112L224.663,22.2Z" transform="translate(-70.828)" fill="#b3b3b3"/>
      <path id="Path_329-2" data-name="Path 329" d="M145.734,0,134.344,22.2l15.062-10.112L157.49,22.2Z" transform="translate(-47.219)" fill="#b3b3b3"/>
      <path id="Path_330-2" data-name="Path 330" d="M78.562,0,67.172,22.2,82.234,12.087,90.318,22.2Z" transform="translate(-23.609)" fill="#b3b3b3"/>
      <path id="Path_331-2" data-name="Path 331" d="M11.389,0,0,22.2,15.062,12.087,23.146,22.2Z" fill="#b3b3b3"/>
      <path id="Path_332-2" data-name="Path 332" d="M470.207,85.989l15.062-10.112,8.084,10.112L481.6,63.79Z" transform="translate(-165.265 -22.42)" fill="#b3b3b3"/>
      <path id="Path_333-2" data-name="Path 333" d="M414.424,63.79l-11.389,22.2L418.1,75.877l8.084,10.112Z" transform="translate(-141.656 -22.42)" fill="#b3b3b3"/>
      <path id="Path_334-2" data-name="Path 334" d="M347.251,63.79l-11.389,22.2,15.061-10.112,8.084,10.112Z" transform="translate(-118.047 -22.42)" fill="#b3b3b3"/>
      <path id="Path_335-2" data-name="Path 335" d="M280.079,63.79l-11.389,22.2,15.062-10.112,8.084,10.112Z" transform="translate(-94.437 -22.42)" fill="#b3b3b3"/>
      <path id="Path_336-2" data-name="Path 336" d="M212.906,63.79l-11.389,22.2,15.062-10.112,8.084,10.112Z" transform="translate(-70.828 -22.42)" fill="#b3b3b3"/>
      <path id="Path_337-2" data-name="Path 337" d="M145.734,63.79l-11.389,22.2,15.062-10.112,8.084,10.112Z" transform="translate(-47.219 -22.42)" fill="#b3b3b3"/>
      <path id="Path_338-2" data-name="Path 338" d="M78.561,63.79l-11.389,22.2L82.234,75.877l8.084,10.112Z" transform="translate(-23.609 -22.42)" fill="#b3b3b3"/>
      <path id="Path_339-2" data-name="Path 339" d="M0,85.989,15.062,75.877l8.083,10.112L11.389,63.79Z" transform="translate(0 -22.42)" fill="#b3b3b3"/>
      <path id="Path_340-2" data-name="Path 340" d="M470.207,149.778l15.062-10.111,8.084,10.111-11.756-22.2Z" transform="translate(-165.265 -44.841)" fill="#b3b3b3"/>
      <path id="Path_341-2" data-name="Path 341" d="M414.424,127.58l-11.389,22.2L418.1,139.667l8.084,10.112Z" transform="translate(-141.656 -44.841)" fill="#b3b3b3"/>
      <path id="Path_342-2" data-name="Path 342" d="M347.251,127.58l-11.389,22.2,15.061-10.112,8.084,10.112Z" transform="translate(-118.047 -44.841)" fill="#b3b3b3"/>
      <path id="Path_343-2" data-name="Path 343" d="M280.079,127.58l-11.389,22.2,15.062-10.112,8.084,10.112Z" transform="translate(-94.437 -44.841)" fill="#b3b3b3"/>
      <path id="Path_344-2" data-name="Path 344" d="M212.906,127.58l-11.389,22.2,15.062-10.112,8.084,10.112Z" transform="translate(-70.828 -44.841)" fill="#b3b3b3"/>
      <path id="Path_345-2" data-name="Path 345" d="M145.734,127.58l-11.389,22.2,15.062-10.112,8.084,10.112Z" transform="translate(-47.219 -44.841)" fill="#b3b3b3"/>
      <path id="Path_346-2" data-name="Path 346" d="M78.561,127.58l-11.389,22.2,15.062-10.112,8.084,10.112Z" transform="translate(-23.609 -44.841)" fill="#b3b3b3"/>
      <path id="Path_347-2" data-name="Path 347" d="M0,149.778l15.062-10.111,8.083,10.111-11.756-22.2Z" transform="translate(0 -44.841)" fill="#b3b3b3"/>
      <path id="Path_348-2" data-name="Path 348" d="M470.207,213.569l15.062-10.112,8.084,10.112-11.756-22.2Z" transform="translate(-165.265 -67.261)" fill="#b3b3b3"/>
      <path id="Path_349-2" data-name="Path 349" d="M414.424,191.37l-11.389,22.2L418.1,203.457l8.084,10.112Z" transform="translate(-141.656 -67.261)" fill="#b3b3b3"/>
      <path id="Path_350-2" data-name="Path 350" d="M347.251,191.37l-11.389,22.2,15.061-10.112,8.084,10.112Z" transform="translate(-118.047 -67.261)" fill="#b3b3b3"/>
      <path id="Path_351-2" data-name="Path 351" d="M280.079,191.37l-11.389,22.2,15.062-10.112,8.084,10.112Z" transform="translate(-94.437 -67.261)" fill="#b3b3b3"/>
      <path id="Path_352-2" data-name="Path 352" d="M212.906,191.37l-11.389,22.2,15.062-10.112,8.084,10.112Z" transform="translate(-70.828 -67.261)" fill="#b3b3b3"/>
      <path id="Path_353-2" data-name="Path 353" d="M145.734,191.37l-11.389,22.2,15.062-10.112,8.084,10.112Z" transform="translate(-47.219 -67.261)" fill="#b3b3b3"/>
      <path id="Path_354-2" data-name="Path 354" d="M78.561,191.37l-11.389,22.2,15.062-10.112,8.084,10.112Z" transform="translate(-23.609 -67.261)" fill="#b3b3b3"/>
      <path id="Path_355-2" data-name="Path 355" d="M0,213.569l15.062-10.112,8.083,10.112-11.756-22.2Z" transform="translate(0 -67.261)" fill="#b3b3b3"/>
      <path id="Path_356-2" data-name="Path 356" d="M470.207,277.358l15.062-10.111,8.084,10.111-11.756-22.2Z" transform="translate(-165.265 -89.681)" fill="#b3b3b3"/>
      <path id="Path_357-2" data-name="Path 357" d="M414.424,255.159l-11.389,22.2L418.1,267.247l8.084,10.112Z" transform="translate(-141.656 -89.682)" fill="#b3b3b3"/>
      <path id="Path_358-2" data-name="Path 358" d="M347.251,255.159l-11.389,22.2,15.061-10.112,8.084,10.112Z" transform="translate(-118.047 -89.682)" fill="#b3b3b3"/>
      <path id="Path_359-2" data-name="Path 359" d="M280.079,255.159l-11.389,22.2,15.062-10.112,8.084,10.112Z" transform="translate(-94.437 -89.682)" fill="#b3b3b3"/>
      <path id="Path_360-2" data-name="Path 360" d="M212.906,255.159l-11.389,22.2,15.062-10.112,8.084,10.112Z" transform="translate(-70.828 -89.682)" fill="#b3b3b3"/>
      <path id="Path_361-2" data-name="Path 361" d="M145.734,255.159l-11.389,22.2,15.062-10.112,8.084,10.112Z" transform="translate(-47.219 -89.682)" fill="#b3b3b3"/>
      <path id="Path_362-2" data-name="Path 362" d="M78.561,255.159l-11.389,22.2,15.062-10.112,8.084,10.112Z" transform="translate(-23.609 -89.682)" fill="#b3b3b3"/>
      <path id="Path_363-2" data-name="Path 363" d="M0,277.358l15.062-10.111,8.083,10.111-11.756-22.2Z" transform="translate(0 -89.681)" fill="#b3b3b3"/>
      <path id="Path_364-2" data-name="Path 364" d="M470.207,341.148l15.062-10.112,8.084,10.112-11.756-22.2Z" transform="translate(-165.265 -112.102)" fill="#b3b3b3"/>
      <path id="Path_365-2" data-name="Path 365" d="M403.034,341.148,418.1,331.036l8.085,10.112-11.756-22.2Z" transform="translate(-141.656 -112.102)" fill="#b3b3b3"/>
      <path id="Path_366-2" data-name="Path 366" d="M335.862,341.148l15.061-10.112,8.085,10.112-11.757-22.2Z" transform="translate(-118.047 -112.102)" fill="#b3b3b3"/>
      <path id="Path_367-2" data-name="Path 367" d="M268.69,341.148l15.061-10.112,8.085,10.112-11.756-22.2Z" transform="translate(-94.437 -112.102)" fill="#b3b3b3"/>
      <path id="Path_368-2" data-name="Path 368" d="M201.517,341.148l15.062-10.112,8.084,10.112-11.756-22.2Z" transform="translate(-70.828 -112.102)" fill="#b3b3b3"/>
      <path id="Path_369-2" data-name="Path 369" d="M134.345,341.148l15.061-10.112,8.084,10.112-11.756-22.2Z" transform="translate(-47.219 -112.102)" fill="#b3b3b3"/>
      <path id="Path_370-2" data-name="Path 370" d="M67.172,341.148l15.061-10.112,8.084,10.112-11.756-22.2Z" transform="translate(-23.609 -112.102)" fill="#b3b3b3"/>
      <path id="Path_371-2" data-name="Path 371" d="M0,341.148l15.062-10.112,8.083,10.112-11.756-22.2Z" transform="translate(0 -112.102)" fill="#b3b3b3"/>
    </g>
  </g>
</svg>
