<svg xmlns="http://www.w3.org/2000/svg" width="1359.415" height="161.809" viewBox="0 0 1359.415 161.809">
  <g id="Group_249" data-name="Group 249" transform="translate(0 -1444)" opacity="0.22">
    <path id="Path_681" data-name="Path 681" d="M890.8,0,873.242,34.23l23.225-15.592L908.932,34.23Z" transform="translate(0 1444)" fill="#b3b3b3"/>
    <path id="Path_723" data-name="Path 723" d="M890.8,0,873.242,34.23l23.225-15.592L908.932,34.23Z" transform="translate(326 1444)" fill="#b3b3b3"/>
    <path id="Path_738" data-name="Path 738" d="M890.8,0,873.242,34.23l23.225-15.592L908.932,34.23Z" transform="translate(450.483 1444)" fill="#b3b3b3"/>
    <path id="Path_682" data-name="Path 682" d="M823.63,0,806.069,34.23l23.224-15.592L841.759,34.23Z" transform="translate(0 1444)" fill="#b3b3b3"/>
    <path id="Path_724" data-name="Path 724" d="M823.63,0,806.069,34.23l23.224-15.592L841.759,34.23Z" transform="translate(326 1444)" fill="#b3b3b3"/>
    <path id="Path_740" data-name="Path 740" d="M823.63,0,806.069,34.23l23.224-15.592L841.759,34.23Z" transform="translate(450.483 1444)" fill="#b3b3b3"/>
    <path id="Path_683" data-name="Path 683" d="M756.458,0,738.9,34.23l23.224-15.592L774.587,34.23Z" transform="translate(0 1444)" fill="#b3b3b3"/>
    <path id="Path_727" data-name="Path 727" d="M756.458,0,738.9,34.23l23.224-15.592L774.587,34.23Z" transform="translate(326 1444)" fill="#b3b3b3"/>
    <path id="Path_684" data-name="Path 684" d="M689.286,0,671.725,34.23l23.224-15.592L707.415,34.23Z" transform="translate(0 1444)" fill="#b3b3b3"/>
    <path id="Path_729" data-name="Path 729" d="M689.286,0,671.725,34.23l23.224-15.592L707.415,34.23Z" transform="translate(326 1444)" fill="#b3b3b3"/>
    <path id="Path_685" data-name="Path 685" d="M622.113,0,604.551,34.23l23.225-15.592L640.242,34.23Z" transform="translate(0 1444)" fill="#b3b3b3"/>
    <path id="Path_731" data-name="Path 731" d="M622.113,0,604.551,34.23l23.225-15.592L640.242,34.23Z" transform="translate(326 1444)" fill="#b3b3b3"/>
    <path id="Path_686" data-name="Path 686" d="M554.941,0,537.379,34.23,560.6,18.638,573.07,34.23Z" transform="translate(0 1444)" fill="#b3b3b3"/>
    <path id="Path_687" data-name="Path 687" d="M487.768,0,470.206,34.23l23.225-15.592L505.9,34.23Z" transform="translate(0 1444)" fill="#b3b3b3"/>
    <path id="Path_688" data-name="Path 688" d="M420.6,0,403.034,34.23l23.225-15.592L438.725,34.23Z" transform="translate(0 1444)" fill="#b3b3b3"/>
    <path id="Path_689" data-name="Path 689" d="M353.424,0,335.862,34.23l23.225-15.592L371.553,34.23Z" transform="translate(0 1444)" fill="#b3b3b3"/>
    <path id="Path_690" data-name="Path 690" d="M286.251,0,268.689,34.23l23.225-15.592L304.38,34.23Z" transform="translate(0 1444)" fill="#b3b3b3"/>
    <path id="Path_691" data-name="Path 691" d="M219.079,0,201.517,34.23l23.225-15.592L237.208,34.23Z" transform="translate(0 1444)" fill="#b3b3b3"/>
    <path id="Path_692" data-name="Path 692" d="M151.906,0,134.344,34.23l23.225-15.592L170.034,34.23Z" transform="translate(0 1444)" fill="#b3b3b3"/>
    <path id="Path_693" data-name="Path 693" d="M84.734,0,67.172,34.23,90.4,18.638,102.862,34.23Z" transform="translate(0 1444)" fill="#b3b3b3"/>
    <path id="Path_694" data-name="Path 694" d="M17.562,0,0,34.23,23.225,18.638,35.69,34.23Z" transform="translate(0 1444)" fill="#b3b3b3"/>
    <path id="Path_695" data-name="Path 695" d="M873.242,98.019l23.225-15.591,12.465,15.591L890.8,63.789Z" transform="translate(0 1444)" fill="#b3b3b3"/>
    <path id="Path_725" data-name="Path 725" d="M873.242,98.019l23.225-15.591,12.465,15.591L890.8,63.789Z" transform="translate(326 1444)" fill="#b3b3b3"/>
    <path id="Path_739" data-name="Path 739" d="M873.242,98.019l23.225-15.591,12.465,15.591L890.8,63.789Z" transform="translate(450.483 1444)" fill="#b3b3b3"/>
    <path id="Path_696" data-name="Path 696" d="M823.631,63.789l-17.562,34.23,23.225-15.592,12.465,15.592Z" transform="translate(0 1444)" fill="#b3b3b3"/>
    <path id="Path_726" data-name="Path 726" d="M823.631,63.789l-17.562,34.23,23.225-15.592,12.465,15.592Z" transform="translate(326 1444)" fill="#b3b3b3"/>
    <path id="Path_741" data-name="Path 741" d="M823.631,63.789l-17.562,34.23,23.225-15.592,12.465,15.592Z" transform="translate(450.483 1444)" fill="#b3b3b3"/>
    <path id="Path_697" data-name="Path 697" d="M756.458,63.789,738.9,98.019l23.224-15.592,12.465,15.592Z" transform="translate(0 1444)" fill="#b3b3b3"/>
    <path id="Path_728" data-name="Path 728" d="M756.458,63.789,738.9,98.019l23.224-15.592,12.465,15.592Z" transform="translate(326 1444)" fill="#b3b3b3"/>
    <path id="Path_698" data-name="Path 698" d="M689.286,63.789l-17.562,34.23,23.225-15.592,12.465,15.592Z" transform="translate(0 1444)" fill="#b3b3b3"/>
    <path id="Path_730" data-name="Path 730" d="M689.286,63.789l-17.562,34.23,23.225-15.592,12.465,15.592Z" transform="translate(326 1444)" fill="#b3b3b3"/>
    <path id="Path_699" data-name="Path 699" d="M622.114,63.789l-17.561,34.23,23.224-15.592,12.465,15.592Z" transform="translate(0 1444)" fill="#b3b3b3"/>
    <path id="Path_732" data-name="Path 732" d="M622.114,63.789l-17.561,34.23,23.224-15.592,12.465,15.592Z" transform="translate(326 1444)" fill="#b3b3b3"/>
    <path id="Path_700" data-name="Path 700" d="M554.941,63.789l-17.562,34.23L560.6,82.427l12.465,15.592Z" transform="translate(0 1444)" fill="#b3b3b3"/>
    <path id="Path_701" data-name="Path 701" d="M487.769,63.789l-17.561,34.23,23.224-15.592L505.9,98.019Z" transform="translate(0 1444)" fill="#b3b3b3"/>
    <path id="Path_702" data-name="Path 702" d="M420.6,63.789l-17.561,34.23,23.224-15.592,12.465,15.592Z" transform="translate(0 1444)" fill="#b3b3b3"/>
    <path id="Path_703" data-name="Path 703" d="M353.424,63.789l-17.561,34.23,23.224-15.592,12.465,15.592Z" transform="translate(0 1444)" fill="#b3b3b3"/>
    <path id="Path_704" data-name="Path 704" d="M286.251,63.789l-17.562,34.23,23.225-15.592,12.465,15.592Z" transform="translate(0 1444)" fill="#b3b3b3"/>
    <path id="Path_705" data-name="Path 705" d="M219.079,63.789l-17.562,34.23,23.225-15.592,12.465,15.592Z" transform="translate(0 1444)" fill="#b3b3b3"/>
    <path id="Path_706" data-name="Path 706" d="M151.906,63.789l-17.562,34.23,23.225-15.592,12.465,15.592Z" transform="translate(0 1444)" fill="#b3b3b3"/>
    <path id="Path_707" data-name="Path 707" d="M84.734,63.789,67.172,98.019,90.4,82.427l12.465,15.592Z" transform="translate(0 1444)" fill="#b3b3b3"/>
    <path id="Path_708" data-name="Path 708" d="M0,98.019,23.225,82.428,35.689,98.019,17.562,63.789Z" transform="translate(0 1444)" fill="#b3b3b3"/>
    <path id="Path_709" data-name="Path 709" d="M873.242,161.809l23.225-15.592,12.465,15.592L890.8,127.579Z" transform="translate(0 1444)" fill="#b3b3b3"/>
    <path id="Path_733" data-name="Path 733" d="M873.242,161.809l23.225-15.592,12.465,15.592L890.8,127.579Z" transform="translate(326 1444)" fill="#b3b3b3"/>
    <path id="Path_742" data-name="Path 742" d="M873.242,161.809l23.225-15.592,12.465,15.592L890.8,127.579Z" transform="translate(450.483 1444)" fill="#b3b3b3"/>
    <path id="Path_710" data-name="Path 710" d="M806.07,161.809l23.224-15.592,12.466,15.592-18.129-34.23Z" transform="translate(0 1444)" fill="#b3b3b3"/>
    <path id="Path_734" data-name="Path 734" d="M806.07,161.809l23.224-15.592,12.466,15.592-18.129-34.23Z" transform="translate(326 1444)" fill="#b3b3b3"/>
    <path id="Path_743" data-name="Path 743" d="M806.07,161.809l23.224-15.592,12.466,15.592-18.129-34.23Z" transform="translate(450.483 1444)" fill="#b3b3b3"/>
    <path id="Path_711" data-name="Path 711" d="M738.9,161.809l23.224-15.592,12.466,15.592-18.129-34.23Z" transform="translate(0 1444)" fill="#b3b3b3"/>
    <path id="Path_735" data-name="Path 735" d="M738.9,161.809l23.224-15.592,12.466,15.592-18.129-34.23Z" transform="translate(326 1444)" fill="#b3b3b3"/>
    <path id="Path_712" data-name="Path 712" d="M671.725,161.809l23.224-15.592,12.465,15.592-18.128-34.23Z" transform="translate(0 1444)" fill="#b3b3b3"/>
    <path id="Path_736" data-name="Path 736" d="M671.725,161.809l23.224-15.592,12.465,15.592-18.128-34.23Z" transform="translate(326 1444)" fill="#b3b3b3"/>
    <path id="Path_713" data-name="Path 713" d="M604.552,161.809l23.224-15.592,12.466,15.592-18.128-34.23Z" transform="translate(0 1444)" fill="#b3b3b3"/>
    <path id="Path_737" data-name="Path 737" d="M604.552,161.809l23.224-15.592,12.466,15.592-18.128-34.23Z" transform="translate(326 1444)" fill="#b3b3b3"/>
    <path id="Path_714" data-name="Path 714" d="M537.379,161.809,560.6,146.217l12.466,15.592-18.128-34.23Z" transform="translate(0 1444)" fill="#b3b3b3"/>
    <path id="Path_715" data-name="Path 715" d="M470.207,161.809l23.225-15.592L505.9,161.809l-18.128-34.23Z" transform="translate(0 1444)" fill="#b3b3b3"/>
    <path id="Path_716" data-name="Path 716" d="M403.034,161.809l23.224-15.592,12.466,15.592L420.6,127.579Z" transform="translate(0 1444)" fill="#b3b3b3"/>
    <path id="Path_717" data-name="Path 717" d="M335.862,161.809l23.224-15.592,12.466,15.592-18.128-34.23Z" transform="translate(0 1444)" fill="#b3b3b3"/>
    <path id="Path_718" data-name="Path 718" d="M268.69,161.809l23.224-15.592,12.466,15.592-18.128-34.23Z" transform="translate(0 1444)" fill="#b3b3b3"/>
    <path id="Path_719" data-name="Path 719" d="M201.517,161.809l23.225-15.592,12.465,15.592-18.128-34.23Z" transform="translate(0 1444)" fill="#b3b3b3"/>
    <path id="Path_720" data-name="Path 720" d="M134.345,161.809l23.224-15.592,12.465,15.592-18.127-34.23Z" transform="translate(0 1444)" fill="#b3b3b3"/>
    <path id="Path_721" data-name="Path 721" d="M67.172,161.809,90.4,146.217l12.465,15.592-18.127-34.23Z" transform="translate(0 1444)" fill="#b3b3b3"/>
    <path id="Path_722" data-name="Path 722" d="M0,161.809l23.225-15.592,12.464,15.592-18.127-34.23Z" transform="translate(0 1444)" fill="#b3b3b3"/>
  </g>
</svg>
