<svg xmlns="http://www.w3.org/2000/svg" xmlns:xlink="http://www.w3.org/1999/xlink" width="341.486" height="303.369" viewBox="0 0 341.486 303.369">
  <defs>
    <clipPath id="clip-path">
      <rect id="Rectangle_120" data-name="Rectangle 120" width="341.486" height="303.369" fill="none"/>
    </clipPath>
  </defs>
  <g id="Group_312" data-name="Group 312" transform="translate(-867.438 -1988.266)">
    <g id="Group_306" data-name="Group 306" transform="translate(867.438 1988.266)">
      <path id="Path_794" data-name="Path 794" d="M80.317,228.841l-64.96.044h-.524V403.6h13.6l2.719,0h8.156l2.721,0,2.723,0H61.064l2.721,0,2.718,0H93.7l2.72,0,2.721,0h5.437l2.722,0h13.6l2.72,0,2.718,0h21.758l2.718,0,2.718,0h10.882l2.718,0h16.32l2.72,0h3.786l.37-.223,1.377-2.832.1-.2-.006-.012-.04-.091-.2-.328-.278-.3-1.232-.9-.286-.281-.246-.293-.148-.328-.057-.321.091-.414.208-.452.42-.636.37-.382.377-.3.7-.344.69-.2.7-.1,1.418-.079.662-.112.691-.233.676-.312.452-.262.983-.776L199.7,390.4l.234-.474.177-.48.212-.969.018-.2-.178-1.646-.464-1.782-.1-.665v-.318l.114-.446.216-.481.489-.782.39-.433.407-.335.374-.177.377-.128.351-.08.342-.041.638.022,2.4.643.3.028.312-.035,8.892-4.255.781-.226.368-.05.333.033.344.118.615.405,1.271,1.052.333.161.373.079h.378l.771-.141.329-.011.325.076.291.178.243.263.346.584.23.251.291.08.308-.117.261-.3.564-1.169.2-.3.247-.3.283-.569.264-.824.338-1.712.281-.845.282-.573.264-.341.1-.163.253-.561.832-2.736,1.361-3.043.72-.982,2.451-2.637.242-.422.169-.407.1-.562-.021-.486-.191-.552-.286-.157-.333-.044-3.769.559-2.791-.1-1.137-.218-.329-.124-.3-.171-.23-.336-.091-.464.148-.754.13-.425.24-.538.208-.8.4-2.309.347-1.337.164-.313.673-.99.524-.616.616-.594.325-.225.32-.176.329-.133.707-.171,3.434-.486.351-.13.312-.2.178-.335.013-.4-.238-.573-.273-.308-.312-.225-.647-.3-1.261-.746-.3-.253-.255-.3-.139-.427-.056-.519.082-.878.2-.941.186-.4.079-.114.143-.179.247-.216.295-.149.333-.111.662-.1,1.793.063.675-.105.338-.109.348-.159.316-.209.3-.272.23-.337.1-.224.259-.26.047-.306.3-1.1-.015-.566-.365-1.274-.057-.389.057-.979.061-.36.017-.709.195-1.537.006-.356-.249-2.141.07-1.686.087-.653,0-.426-.039-.074.152-1.227,1.038-2.489.272-1.17-.1-.417-.016-.176-.221-1.142-.537-1.636-1.193-2.51-.191-.523-.1-.436-.312-3.16-.4-1.153-.334-.67-.481-.716-.586-.688-.979-.758-2.273-1.315-2.653-2.038-.582-.631-.264-.392-.259-.478-.42-1.116-.746-4.434-.954-3.752-.043-.477.03-.643.074-.326.126-.316.408-.6.82-.851,3.854-3.053.533-.608.2-.3.169-.314.126-.322.186-.688.217-1.462.1-.366.152-.359,1.175-2.025.273-.622.1-.318.066-.42v-.64l-.1-.63-.121-.326-.182-.33-.239-.308-.273-.259-.3-.21-.3-.133-.4-.075-.477-.021-1.284.149-.755.213-6.443,3.021-2.471.712-1.357.222-.79-.036-.511-.1-.407-.128-.686-.319-.489-.291-.281-.219-4.427-4.182-11.691-14.682-2.657-2.278-3.881-4.817-3.512-7.111-.342-.488-1.306-1.439-.524-.437-.452-.313-2.583-1.064-1.358-.8-3.712-3.5-.437-.538-.481-.712-2.589-5.557-.3-.993-.086-.861.112-1.219.134-.384.329-.676-56.852-.008Z" transform="translate(-6.507 -100.398)" fill="#ddd"/>
      <path id="Path_790" data-name="Path 790" d="M440.177,23.589l.287.892,1.1,3.44.881,2.749,1.071,2.837,1.423,3.779,1.721,4.554.61,2.582.061,1.341.167.551.445.61.277.4-.006.441-.266.968-.049.569.06.373.194.3,1.525,1.341.309.464.927,2.669,1.648,4.767,1.083,3.112.078.18.049.19.017.193-.015.2.176,1.752,1.225,3.369,1.094,3.026.719,3.311-.052,2.222.2.768.639,1.33.241.457-.035.018L446.32,77.521l-3.491-1.274-3.24-1.746-5.671-2.148L426.764,68.5l-17.83-3.163-7.7.369-.208-.3-.242-.437-.247-.677-.343-6.571-.529-3.005-1.479-3.847-2.562-4.12v-.005l-.057-.127-.1-.434-.09-.666-.061-2.885-1.144-11.283-.071-2.825,0-.036.053.017,1.228.039,1.174-.152,2.081-.547,2.48-1.227.482-.375,1.151-.584.314-.236h.191v.244l-.892.344-1.558,1.181-.908.258-1.527.717-2.4.621h1.355V29l-.4.223h.854l.324-.126.177-.315h.172l.024.188.09.031.123-.024.159.025,1.719-1.112,1.446-.454.287-.235h.172l.118.174.4.1-.094.161-.213.026v.223l.293-.1.662-.342V27.2h-.764V27l.377-.159.473.127.432.308.259.39.068.184.06.321.049.164h-.386l.927.34.432-.024.378-.316v-.243l-.266-.155-.135-.048v-.223l1.083-.281.268-.185-.14-.246.062-.236.15-.274.118-.358h-.19l-.181.222-.58.447-.088.12-.094.1v.1l.182.126-.373.086-.637-.011-.658-.1L404.022,27l.844-.085.48-.5.352-.657.443-.562.337-.165.691-.122.323-.159.537-.513.322-.159.478,0v.223h-.778v.2l.348.259,1,1.321.3.556-.116.179-.352.09-.4.288-.035-.081v-.086l-.034-.054L408.62,27v.2l.469.327.25.421-.012.5-.306.555,1-.406.519-.12.371.061.189-.04h.131l.252.039v-.2l-.381-.243h-.191v.243h-.171v-.243l1.483-.581.407-.31h.205l-.205.243.205.223.207-.183.23-.02.2.14.114.286h.208l.024-.276-.009-.329-.036-.052.4-.032-.266-.142-.277.04-.264-.032L413.041,27l3.054-.245-.246-.592.362-.12.441-.035v-.592l.3.151.1.093h.192l.374-.106,1.114.586.523.168,2.04.213.546.233v-.225l.634.193.928-.061,5.767-1.509,5.384-2.147,4.231-2.75.05-.031.68,1.261.162.539ZM404.7,27.825l-.1-.157-.15,0,.2-.153.168.044.11.2.063.333Zm11.105-3.52.839.164.753.405,1.2.99-.6-.423-4.351-1.9-.807-.13.876.029,1.437.686Zm-8.309-1.229.73-.431,4.407.546-.177.141H412.1l-.864-.163-.83-.121-.832-.122-.953.266-.459-.1-.729.262-3.369,1.816-.591.5.327-.5.651-.319.542-.3.346-.2.373-.276,1.456-.676Z" transform="translate(-172.904 -8.875)" fill="#ddd"/>
      <path id="Path_791" data-name="Path 791" d="M440.177,23.589l.287.892,1.1,3.44.881,2.749,1.071,2.837,1.423,3.779,1.721,4.554.61,2.582.061,1.341.167.551.445.61.277.4-.006.441-.266.968-.049.569.06.373.194.3,1.525,1.341.309.464.927,2.669,1.648,4.767,1.083,3.112.078.18.049.19.017.193-.015.2.176,1.752,1.225,3.369,1.094,3.026.719,3.311-.052,2.222.2.768.639,1.33.241.457-.035.018L446.32,77.521l-3.491-1.274-3.24-1.746-5.671-2.148L426.764,68.5l-17.83-3.163-7.7.369-.208-.3-.242-.437-.247-.677-.343-6.571-.529-3.005-1.479-3.847-2.562-4.12v-.005l-.057-.127-.1-.434-.09-.666-.061-2.885-1.144-11.283-.071-2.825,0-.036.053.017,1.228.039,1.174-.152,2.081-.547,2.48-1.227.482-.375,1.151-.584.314-.236h.191v.244l-.892.344-1.558,1.181-.908.258-1.527.717-2.4.621h1.355V29l-.4.223h.854l.324-.126.177-.315h.172l.024.188.09.031.123-.024.159.025,1.719-1.112,1.446-.454.287-.235h.172l.118.174.4.1-.094.161-.213.026v.223l.293-.1.662-.342V27.2h-.764V27l.377-.159.473.127.432.308.259.39.068.184.06.321.049.164h-.386l.927.34.432-.024.378-.316v-.243l-.266-.155-.135-.048v-.223l1.083-.281.268-.185-.14-.246.062-.236.15-.274.118-.358h-.19l-.181.222-.58.447-.088.12-.094.1v.1l.182.126-.373.086-.637-.011-.658-.1L404.022,27l.844-.085.48-.5.352-.657.443-.562.337-.165.691-.122.323-.159.537-.513.322-.159.478,0v.223h-.778v.2l.348.259,1,1.321.3.556-.116.179-.352.09-.4.288-.035-.081v-.086l-.034-.054L408.62,27v.2l.469.327.25.421-.012.5-.306.555,1-.406.519-.12.371.061.189-.04h.131l.252.039v-.2l-.381-.243h-.191v.243h-.171v-.243l1.483-.581.407-.31h.205l-.205.243.205.223.207-.183.23-.02.2.14.114.286h.208l.024-.276-.009-.329-.036-.052.4-.032-.266-.142-.277.04-.264-.032L413.041,27l3.054-.245-.246-.592.362-.12.441-.035v-.592l.3.151.1.093h.192l.374-.106,1.114.586.523.168,2.04.213.546.233v-.225l.634.193.928-.061,5.767-1.509,5.384-2.147,4.231-2.75.05-.031.68,1.261.162.539ZM404.7,27.825l-.1-.157-.15,0,.2-.153.168.044.11.2.063.333Zm11.105-3.52.839.164.753.405,1.2.99-.6-.423-4.351-1.9-.807-.13.876.029,1.437.686Zm-8.309-1.229.73-.431,4.407.546-.177.141H412.1l-.864-.163-.83-.121-.832-.122-.953.266-.459-.1-.729.262-3.369,1.816-.591.5.327-.5.651-.319.542-.3.346-.2.373-.276,1.456-.676Z" transform="translate(-172.904 -8.875)" fill="none" stroke="#fff" stroke-linecap="round" stroke-linejoin="round" stroke-width="1"/>
      <path id="Path_792" data-name="Path 792" d="M366.816,362.938l-.008,1.639-.091.442-.121.285-.273.207-.234.132-.487.411,2.273,1.315.979.758.586.688.48.716.334.67.4,1.153.312,3.161.1.436.191.522,1.193,2.51L373,379.62l.22,1.143.016.175.1.417-.272,1.17-1.038,2.489-.152,1.228.039.074v.426l-.086.653-.07,1.686L372,391.22l-.006.357-.195,1.536-.017.709-.061.36-.057.979.057.39.365,1.274.015.566-.3,1.1-.047.306-.259.26-.1.224-.23.337-.3.272-.316.209-.348.159-.338.109-.676.1-1.792-.063-.663.1-.333.111-.294.149-.247.216-.143.179-.079.114-.187.4-.195.941-.083.878.056.519.139.427.255.3.3.254,1.26.746.647.3.312.225.273.308.237.572-.012.4-.178.335-.311.2-.351.13-3.434.486-.707.171-.329.133-.32.176-.325.224-.616.594-.524.616-.673.99-.164.313-.347,1.336-.4,2.309-.208.8-.239.538-.13.425-.148.754.091.464.23.337.3.17.329.124,1.137.218,2.791.1,3.769-.559.333.044.286.157.191.552.021.486-.1.562-.17.408-.242.421-2.45,2.637-.72.982-1.362,3.043-.832,2.736-.253.561-.1.163-.264.341-.281.573-.281.845-.338,1.712-.264.824-.283.569-.247.3-.2.3-.563,1.169-.261.3-.308.117-.29-.08-.23-.251-.346-.584-.243-.263-.291-.177-.325-.077-.329.011-.771.141H356l-.373-.079-.334-.161-1.271-1.052-.615-.4-.344-.119-.333-.033-.368.05-.781.226-8.892,4.254-.313.035-.3-.028-2.4-.643-.638-.022-.343.041-.35.08-.377.129-.374.177-.407.335-.39.433-.489.782-.216.48-.114.446v.318l.1.665.464,1.782.178,1.646-.018.2-.212.969-.177.48-.234.474-1.965,2.512-.984.776-.451.262-.676.313-.691.232-.662.112-1.418.079-.7.1-.69.2-.7.344-.377.3-.369.382-.42.636-.208.452-.091.414.057.321.148.328.246.293.286.281,1.232.9.277.3.2.328.04.091.006.012,1.261-2.589.722-.8.523-.281.537-.1.537.084.514.262.616.605.248.671-.034.754-.647,1.934-.892,2.676h1.656l0-.008.037-.135.789-1.516.63-.74.633-.492.611-.372,5.789-2.722.324-.256.478-.616.377-.671.23-.313.316-.29.372-.139.357-.063.953-.026.34-.065.333-.121.312-.18,1.128-.83.385-.411.494-.64.463-.773,1.814-5.13.307-.658.2-.291.273-.221.3-.106.309.04.32.14.308.193,1.28,1.04,1.152,1.343.262.209.3.193.684.326.712.231.368.06,1.552.037,1.336-.224,1.266-.407.555-.287.485-.321,1.033-.926.89-.983,3.62-3.289.724-.946.378-.628.16-.412.1-.539.035-.877-.182-1.316.021-.407.217-.416.55-.537.191-.282.286-.911.144-.288.23-.213.277-.047.3.075.321.21.32.285,1.219,1.321.664.507.313.14.3.083.3.047.273.005,2.286-.381.711.068.647.221.655.405,2.251,2.324,1.812,1.35.291.139.294.093.277.015.24-.155.113-.34-.061-.775-1.184-3.957-.168-.318-.236-.308-.542-.49-.247-.3-.364-.675-.234-.3-.283-.24-.32-.176-1.661-.621-1.92-1.178-.291-.253-.19-.335-.061-.371.164-.434.546-.6.208-.3.152-.306.39-1.047.2-.357.273-.3.853-.685.188-.27.155-.312.992-2.582.212-.762.052-.333-.026-.424-.1-.476-.324-.7-.789-1.233-.175-.47-.615-2.841-.012-.786.074-.5.569-.933.125-.318.04-.5-.173-1.615-.008-.575.034-.462-.023-.41-.113-.453-.333-.654-.3-.364-.312-.268-.578-.389-.533-.471-.451-.6-.247-.533-.743-2.09-.658-1.228-.256-.7-.79-5.227.247-2.087.59-2.424.26-.549,2.284-3.026.418-.667.346-.676.1-.273.2-.759.039-.576-.039-.244-3.013-6.329-.139-.445-.191-1.094-.078-4.128-.242-1.825-.222-.882-.359-.911-.967-1.666-1.045-1.351-5.668-4.351Z" transform="translate(-142.882 -158.915)" fill="#ddd"/>
      <g id="Group_299" data-name="Group 299">
        <g id="Group_298" data-name="Group 298" clip-path="url(#clip-path)">
          <path id="Path_793" data-name="Path 793" d="M333.213,462.113h-1.655l.892-2.676.647-1.933.035-.754-.249-.671-.615-.605-.514-.262-.537-.084-.537.1-.523.281-.722.8-1.261,2.59-.006-.012-.04-.091-.2-.328-.277-.3-1.231-.9-.286-.282-.247-.293-.147-.327-.056-.322.091-.414.208-.452.42-.637.369-.382.377-.3.7-.343.69-.2.7-.1,1.418-.079.663-.111.69-.233.676-.312.452-.262.983-.776,1.965-2.512.234-.474.177-.479L336.7,447l.017-.2-.177-1.646-.464-1.781-.1-.665v-.319l.114-.445.217-.481.489-.782.39-.434.407-.335.374-.177.377-.128.351-.081.342-.041.638.023,2.4.643.3.027.312-.035,8.892-4.254.781-.227.368-.05.333.034.344.118.615.4,1.271,1.052.333.16.373.079h.378l.771-.141.329-.011.325.077.292.178.242.263.346.584.23.251.291.08.307-.117.262-.3.563-1.169.2-.3.247-.3.283-.569.264-.823.338-1.713.282-.845.282-.573.264-.341.095-.162.253-.562.831-2.736,1.362-3.042.72-.983,2.451-2.637.242-.422.169-.407.1-.562-.022-.487-.19-.552-.286-.157-.334-.045-3.769.559-2.791-.1-1.136-.218-.329-.125-.3-.17-.23-.337-.091-.464.147-.754.13-.426.24-.538.208-.8.4-2.309.347-1.336.164-.313.673-.99.524-.616.616-.595.325-.224.321-.176.329-.134.708-.171,3.434-.486.351-.13.312-.2.178-.336.013-.4-.239-.572-.273-.308-.311-.225-.647-.3L365.933,405l-.3-.254-.255-.3-.139-.427-.056-.518.082-.878.195-.941.186-.4.08-.113.143-.18.246-.216.295-.149.334-.111.662-.1,1.792.063.676-.1.338-.11.348-.159.317-.209.3-.272.23-.338.1-.224.258-.259.048-.306.3-1.1-.015-.566-.365-1.274-.058-.39.058-.979.061-.36.017-.708.2-1.537.006-.357-.249-2.141.07-1.686.086-.653v-.426l-.039-.074.152-1.228,1.038-2.489.272-1.17-.1-.417-.016-.176L373,379.62l-.537-1.635-1.193-2.51-.191-.523-.1-.436-.312-3.161-.4-1.153-.333-.67-.481-.716-.586-.688-.979-.759-2.273-1.315.487-.411.234-.132.273-.207.121-.285.091-.442.008-1.64.208-.718,5.668,4.351,1.045,1.352.967,1.666.359.912.222.882.243,1.826.077,4.128.191,1.1.139.445,3.013,6.329.039.245-.039.576-.2.76-.1.273-.346.675-.418.667-2.284,3.026-.26.55-.59,2.424-.247,2.087.79,5.227.256.7.658,1.228.742,2.09.247.532.451.6.533.472.578.389.312.267.3.364.333.654.113.454.023.411-.034.461.008.576.173,1.615-.04.5-.125.317-.569.933-.074.5.013.786.615,2.841.175.47.789,1.233.325.7.1.477.026.424-.052.333-.212.762-.992,2.582-.156.312-.187.27-.854.685-.273.3-.2.356-.39,1.047-.152.305-.208.3-.546.6-.164.434.061.372.191.335.29.253,1.92,1.178,1.661.62.32.176.283.24.234.3.364.675.246.3.542.49.235.308.17.317,1.184,3.957.061.775-.113.34-.24.156-.277-.015-.295-.093-.29-.139-1.812-1.35-2.251-2.324-.654-.4-.647-.221-.711-.068-2.285.381-.273,0-.3-.047-.3-.083-.312-.14-.665-.508-1.219-1.32-.32-.285-.32-.21-.3-.075-.277.047-.23.213-.144.289-.286.911-.19.282-.55.537-.217.416-.022.407.182,1.317-.035.876-.1.539-.161.413-.378.628-.724.946-3.62,3.289-.89.983-1.033.926-.485.321-.555.288-1.266.407-1.336.225-1.553-.038-.368-.059-.712-.231-.684-.325-.3-.194-.262-.209-1.152-1.343L352.4,444.7l-.308-.192-.321-.141-.309-.04-.3.106-.273.221-.2.292-.307.658-1.814,5.13-.463.773-.494.639-.386.411-1.128.83-.312.18-.334.121-.339.065-.953.026-.357.062-.372.139-.316.289-.23.313-.377.671-.478.616-.325.256-5.789,2.722-.611.372-.633.492-.629.74-.789,1.516-.038.135Z" transform="translate(-142.883 -158.915)" fill="none" stroke="#fff" stroke-linecap="round" stroke-linejoin="round" stroke-width="1"/>
        </g>
      </g>
      <g id="Group_301" data-name="Group 301">
        <g id="Group_300" data-name="Group 300" clip-path="url(#clip-path)">
          <path id="Path_795" data-name="Path 795" d="M191.8,400.374l-.1.2-1.377,2.832-.37.223h-3.786l-2.72,0-2.722,0h-13.6l-2.718,0h-13.6l-2.718,0h-8.162l-2.722,0H126.335l-2.718,0H107.3l-2.722,0H99.139l-2.72,0-2.72,0H80.1l-2.718,0h-13.6l-2.721,0H52.905l-2.717,0H44.75l-2.723,0H31.15l-2.719,0H17.549l-2.718,0V228.885h.524l64.961-.044h37.12l56.853.008-.329.676-.134.384-.113,1.219.087.861.3.992,2.589,5.558.481.712.437.538,3.713,3.5,1.357.8,2.583,1.064.452.313.524.437,1.3,1.438.342.488,3.512,7.111,3.881,4.817,2.657,2.278,11.69,14.683,4.427,4.182.282.219.489.291.686.32.407.127.511.1.79.036,1.357-.222,2.471-.712,6.443-3.022.756-.212,1.284-.149.477.021.4.074.3.134.3.21.273.259.239.308.182.33.121.326.1.63v.64l-.065.42-.1.318-.273.622L230.306,284l-.152.36-.1.367-.217,1.462-.186.688-.126.322-.169.313-.2.3-.533.608-3.854,3.052-.82.851-.407.6-.126.317-.074.326-.03.644.043.476.953,3.752.746,4.433.42,1.117.26.477.264.393.582.631,2.653,2.037,2.273,1.315.979.759.587.688.481.716.333.67.4,1.152L234.6,316l.1.436.191.523,1.193,2.51.537,1.635.221,1.143.016.176.1.417-.272,1.17-1.038,2.489-.152,1.228.039.074,0,.426-.086.653-.07,1.686.249,2.141-.006.356-.195,1.537-.017.708-.061.36-.058.979.058.39.365,1.274.015.566-.3,1.1-.048.306-.258.259-.1.224-.23.338-.3.272-.316.209-.348.16-.338.109-.676.1-1.792-.063-.663.1-.333.111-.295.15-.247.216-.143.18-.08.113-.186.4-.195.941-.082.878.057.518.139.427.255.3.3.254,1.261.746.647.3.312.225.273.308.239.573-.013.4-.178.336-.312.2-.351.13L228,350.18l-.707.171-.329.133-.32.176-.325.225-.616.594-.524.616-.673.99-.164.313-.347,1.336-.4,2.309-.208.8-.24.538-.13.426-.147.754.091.464.23.337.3.17.329.125,1.137.218,2.791.1,3.769-.559.333.045.286.157.19.552.022.486-.1.562-.17.407-.242.422-2.451,2.637-.719.983-1.362,3.043-.832,2.736-.253.561-.1.162-.264.341-.282.573-.282.845-.338,1.713-.264.823-.283.569-.247.3-.2.3-.563,1.169-.262.3-.308.117-.29-.08-.23-.25-.346-.584-.243-.263-.291-.178-.325-.077-.329.011-.771.141h-.378l-.372-.079-.334-.161-1.271-1.052-.615-.405-.343-.118-.333-.034-.368.05-.781.227-8.892,4.254-.312.035-.3-.028-2.4-.643-.638-.023-.342.041-.351.081-.377.128-.374.177-.407.335-.39.433-.489.782-.217.481-.114.445v.319l.106.665.464,1.781.177,1.646-.017.2-.212.969-.177.479-.234.474-1.965,2.512-.983.776-.452.262-.676.313-.69.232-.663.112-1.418.079-.7.1-.69.2-.7.343-.377.3-.37.382-.42.636-.208.452-.091.414.057.322.147.327.247.293.286.282,1.232.9.277.3.2.328.04.091Z" transform="translate(-6.507 -100.398)" fill="none" stroke="#fff" stroke-linecap="round" stroke-linejoin="round" stroke-width="1"/>
        </g>
      </g>
      <path id="Path_796" data-name="Path 796" d="M393.015,215.9l.773,1.751.191.432.391.378-.018-.733-.209-.628-.555-1.2-.139-.019,0,0Zm-.614-23.44-.2.064-.184.13-.157.2.109.333.2.37.259.211.63-.3h0l.284.213.266.323.273.165.594.191.166.193.5.582.367.058.2.031v-.194l-.359-.372-.1-.579-.18-.535-.612-.235-.354-.153-.144-.125-.224-.2-.246-.159-.218-.141-.635-.083Zm-74.939-54.646.1,1.27-.048.455-.2.592L317,140.8l-.494,1.318-.351.7-.387.59-1.245,1.344-.789,1.044-1.613,2.618-1.877,2.523-.59,1.1-.524,1.471-.2.941-.052.645-.89,7.761-.143.663-.164.365-1.362,2.335-.805,2.113-.169.721-.064.569.039.343.281,1.435.122,1.368.061.363.121.372,1.509,2.967.437,1.265.148.862.231,2.986.161.711.645,1.688.138.613.126.963.022.743-.022.5-.5,3.016-.1,2.786.043.923.091.43.269.878.177.415.2.355.248.324.273.246,2.449,1.421,2.836,1.208,1.769.554.394.211.434.3.615.557.342.452.251.453.443,1.273.217.463.208.278.2.19.641.392,1.158.977,1.752,1.807.4.485.645,1.091,2.988,6.264,4.691,3.279,1.232,1.2.433,1.041.651,1.1.729,1.006.295.571.152.488.143,1.39.069.355.426.841.676,1.042.437.562.39.415.5.355.732.388.807.312,1.829.413.356.141.433.291.292.352.251.375.754,1.419,2.957,3.731.864-.192,5.627-2.718,1.448-.274.816-.065,1.778.111,2.181.642.538.286.689.487.963.9,1.1,1.492.395.709.294.711.4,1.45.3,2.277.035,1.111-.048.729-.143.84-.26.824-1.427,2.971-.524.722-.617.7-2.7,2.443-1.838,2.054-.421.614-.295.614-.333,1.028-.052.447.052,1.642.481,2.319.311.868.357.659.247.319.888.833,5.668,4.351,1.045,1.352.967,1.666.359.911.222.882.242,1.825.078,4.128.191,1.094.139.445,3.014,6.33.039.244-.039.576-.2.76-.1.273-.346.675-.418.667-2.284,3.026-.26.549-.59,2.424-.247,2.087.79,5.227.256.7.658,1.228.743,2.09.247.533.45.6.533.471.578.389.312.268.3.364.333.653.113.454.023.411-.034.461.008.575.173,1.615-.04.5-.125.318-.569.932-.074.5.012.786.615,2.841.175.47.789,1.234.324.7.1.477.026.424-.052.333-.212.762-.992,2.582-.155.312-.188.271-.853.684-.273.3-.2.357-.39,1.047-.152.306-.208.3-.546.6-.164.435.061.37.19.335.291.253,1.92,1.178,1.661.621.32.176.283.24.233.3.364.675.247.3.542.49.236.308.168.318,1.184,3.957.061.775-.113.34-.24.155-.277-.015-.294-.093-.291-.139-1.812-1.35-2.251-2.324-.654-.405-.647-.221-.711-.068-2.286.381-.273-.005-.3-.047-.3-.083-.313-.141-.664-.507-1.219-1.321-.32-.284-.321-.21-.3-.075-.277.047-.23.213-.144.289-.286.91-.191.282-.55.537-.217.417-.021.407.182,1.317-.035.876-.1.539-.161.413-.378.628-.724.946-3.62,3.289-.89.983-1.033.926-.485.321-.555.288-1.266.407-1.336.224-1.552-.037-.368-.059-.712-.231-.684-.325-.3-.194-.262-.209-1.152-1.343-1.28-1.04-.308-.192-.32-.14-.309-.04-.3.106-.273.221-.2.291-.307.658-1.814,5.13-.463.773-.494.64-.385.411-1.128.829-.311.181-.333.121-.34.065-.953.026-.357.062-.372.139-.316.289-.23.313-.377.671-.478.616-.325.256-5.788,2.722-.611.372-.633.492-.63.74-.789,1.517-.037.134,0,.008H403.3l6.5,0,6.5,0h39.011l6.5,0,6.5,0h6.532l0-.028.225-.3.184-.324.021-.373-.107-1.094-.655-.241-1.08-.656-.42-.391-.246-.359-.384-.906-.148-.207-.227-.206-.484-.317-.226-.059-.1.113-.054.188-.1.181-.414.04-.532-.287-2.526-2.428-1.689-1.422-.622-.415-.919-.533-1.9-.858-.475-1.244.148-.859-.594-.682h-.148l.089.474-.415-.177-.43-.2-.876-.661-.832-.74-.477-.919-.162-1.4-.444-.732-1.357-1.3-.791-.492-2.156-.727-2.251-.438-1.555-.11-.416-.127-.382-.2-.355-.251-.081-.116-.5-.167-1.011-.411-1.074-.827-.5-.662-.362-.426-.2-.378-.232-.34-.457-.322-.084-.241-.3-1.491-.189-.526-.244-.445-.357-.273-.546-.017.789,1.392.336.471-.744-.411-1.167-1.461-.566-1.046-.2-.486-.368-2.767-.544-1.129-.393-.862-1.3-2.227-.2-1-.258-1.115-.22-1.464.032-1.439-.109-.5-.173-.475-.48-.895-.6-.861-.259-.462-.109-.445.063-.461.273-.848.062-.479.052-2.648.131-1.264-.048-.682-.024-.353-.043-.511.089-.219.023-.447-.235-.376-.518-.116-.236-.776.186-.929.258-1.272-.189-1.46.205-.911.383-.716.252-.187.6.163.427.193.025.156.289.1.319.378.189.259.519.212.424.07.377-.047.518.094.517.212.566.236.425-.212,1.014-.47.4.024.566.614.424.59.189-.282-.494-.661-.589-1.368-.424-.448-.589-.306-.731-.236-.683-.189-.873.165-.849-.519-.071-.9-.4-.849-1.015-1.061-.779-.33-.567-.59-.283.047.26.425.208.425-.466.072-1.065-1.533-.757-.826-1.028-2.967-.594-.715-3.776-2.884-1.39-2.625-1.15-.447,0-.844.453-.947-.011-.5-.4-.347-.533-.976-.487-.8-.154-.4-.651-2.415-.482-.882-.723-.67-.441-.286-.323-.285-.226-.345-.157-.46-.075-.578L422.018,275l-.091-.564-.555-.66-.452-.546-.3-.836-.109-.99-2.4-4.179-1.294-2.247-.334-1.321-.837-1.289-.172-.419-.264-.9-.168-.386-1.212-1.538-.5-.856-.294-1.579-.677-1.31-.382-1.467-2.428-4.824-.232-.329-1.019-1.116-1.874-2.8-.273-.88-.209-.4-2.2-3.065-1.053-2.675-1.092-1.609-2.36-5.463-.675-1.006-.373-.786-.569-.873-.414-.823-.955-2.754-.4-.857-.907-1.2-.277-.967-.291-.437-.441-.265-.9-.278-.392-.328-.259-.909.553-1.9-.007-.812-.109-.411-.054-.55v-.557l.068-.414.318-.589.255.107.3.291.46-.024.209-.347-.025-.5-.184-.992-.144-.34-.339-.236-.4-.217-.355-.285-.268-.427-.352-.928-.239-.475-.56-.781-.2-.429,0-.5.418.056-.2-.521-.51-.692-.48-.451-.525-.371-.291-.432-.118-.538-.027-.694-.034-.187-.139-.273-.018-.184.063-.115.255-.209.063-.1.059-1.192-.059-.33-.364-.538-.55-.39-1.183-.573-1.078-.734-.925-.886-.191-.435-.2-1.4-.177-.638-.2-.313-.473-.508-.189-.263-.089-.314-.036-.69-.082-.288-.414-.387-1.221-.559-.464-.344-.025-.341.036-.3.07-.254.109-.2-.794-1.409-.464-.619-.653-.342.3-.539.541-.436.493-.052.176.616h.207l-.109-.284-.1-.168v-.233h.207l.662.849.294.247v-.215l-.126-.174-.27-.582-.082-.125-.18-.059-.5-.372-.121-.1-.15-.2-.112-.112.255-.329.184-.422.109-.455.041-.43-.18-.054-.4.185-.4.122-.18-.253-.127-.479-.294-.392-.532-.55-.189-.346-.054-.231.072-.266.171-.451h.189l.583.346.745.28.66.4.32.7h.573v-.2l-.139-.243-.107-.613-.136-.243v-.2l-.062-.381-.609-1.454-.2-.323-.335-.308-.639-1.349-1.978-1.82-1.26-.338-.613-.273-.241-.469-.3.083-.332-.08-.209-.2.057-.26v-.191l-.039-.258.039-.2-.607-.346-.928-1.141-.477-.244-.469-.089-.091-.24.019-.351-.134-.423-.232-.173-.32-.136-.28-.167-.325-.68-1.326-1.421-.63-.889-.114-.106-.05-.28-.136-.4-.191-.356-.214-.178.038-.683-.534-.682-1.239-1.023.1-.021.08,0,.041-.038-.006-.139-.253-.229-.8-1.554-.191-.645-.091-.2-.255-.15-.314-.075-.271-.1-.262-.569-.339-.422-.675-.656-1.332-.758-.3-.112-.1-.656-1.246-4.724-.384-.965-.625-.677-.987-.174-1.164-1.643-.113-.075-.633-.7-.1-.326-.021-.644-.089-.337-.3-.4-.857-.889-.185-.345.048-1.124.143-.949-.213-.338.1-.283.3-.138.148-.37.278-.254.154-.263-.021-.694-.077-.315-2.692.03-.534.067-1.148.368-.794.49-8.516,3.736-.6.19-.424.084-2.263-.126-3.838.571-1.184-.539-10.284-3.122-.53-.255-.832-.509-.542-.425-1.106-1.164-.329-.422-.126-.231-.387-.889-.2-.3-.186-.215-.589-.515-2.043-2.527Z" transform="translate(-133.936 -59.87)" fill="#ddd"/>
      <g id="Group_303" data-name="Group 303">
        <g id="Group_302" data-name="Group 302" clip-path="url(#clip-path)">
          <path id="Path_797" data-name="Path 797" d="M353.04,363.067H324.265l0-.008.038-.135.789-1.516.629-.74.633-.492.611-.372,5.789-2.722.325-.255.478-.616.377-.671.23-.313.317-.289.372-.139.357-.062.953-.026.34-.065.333-.121.312-.18,1.128-.83.386-.411.494-.639.463-.773,1.814-5.129.307-.658.2-.292.273-.221.3-.106.309.04.32.141.308.192,1.28,1.04,1.152,1.343.261.209.3.194.684.325.712.231.368.059,1.552.038,1.336-.225,1.266-.407.555-.287.486-.322,1.032-.926.89-.983,3.62-3.289.723-.946.378-.628.161-.413.1-.539.035-.876-.182-1.316.022-.407.217-.416.55-.537.19-.282.286-.911.144-.289.229-.213.277-.047.3.076.32.21.32.285,1.219,1.321.665.507.311.14.3.083.3.047.273,0,2.286-.38.711.068.647.221.654.4,2.251,2.325,1.812,1.35.29.139.295.093.277.015.24-.155.113-.341-.061-.775-1.184-3.957-.169-.317-.236-.308-.542-.489-.246-.3-.364-.675-.234-.3-.283-.24-.32-.176-1.661-.62-1.92-1.178-.29-.253-.191-.335-.061-.371.164-.435.546-.6.208-.3.152-.305.39-1.047.2-.356.273-.3.854-.685.187-.271.156-.311.992-2.582.213-.762.052-.333-.026-.424-.1-.477-.325-.7-.789-1.233-.175-.47-.615-2.841-.013-.786.074-.5.569-.933.125-.318.04-.5-.173-1.615-.008-.576.034-.461-.023-.411-.113-.453-.333-.654-.3-.364-.312-.267-.578-.389-.533-.471-.451-.6-.247-.532-.742-2.09-.658-1.228-.256-.7-.79-5.227.247-2.087.59-2.424.26-.549,2.284-3.026.418-.667.346-.675.1-.273.2-.76.039-.576-.039-.245-3.013-6.329-.139-.445-.19-1.1-.078-4.128-.243-1.826-.222-.882-.359-.912-.966-1.666-1.045-1.351-5.668-4.352-.888-.833-.247-.319-.357-.659-.312-.868-.481-2.319-.052-1.642.052-.446.333-1.029.295-.614.422-.613,1.838-2.055,2.7-2.443.617-.7.524-.722,1.427-2.971.26-.824.143-.84.048-.728-.035-1.111-.3-2.278-.4-1.45-.295-.712-.395-.708-1.1-1.493-.963-.9-.689-.488-.538-.286-2.181-.642-1.778-.111-.816.065-1.448.273-5.627,2.719-.863.192-2.957-3.731-.754-1.42-.251-.374-.291-.352-.433-.291-.355-.14-1.83-.413-.807-.312-.732-.388-.5-.355-.39-.415-.437-.562-.676-1.042-.426-.841-.07-.355-.143-1.39-.152-.488-.295-.57-.73-1.008-.649-1.1-.433-1.041-1.231-1.2-4.692-3.279-2.988-6.263-.646-1.091-.4-.485-1.752-1.807-1.158-.977-.641-.392-.2-.191-.208-.278-.217-.463-.443-1.272-.251-.453-.342-.452-.615-.557-.434-.295-.394-.212-1.769-.554-2.836-1.208L310,196.176l-.273-.245-.249-.325-.2-.355-.177-.415-.269-.879-.091-.43-.043-.923.1-2.786.5-3.015.021-.505-.021-.742-.126-.963-.139-.613-.645-1.688-.161-.711L308,178.6l-.148-.862-.437-1.266-1.509-2.966-.121-.372-.061-.364L305.6,171.4l-.282-1.434-.039-.343.065-.569.169-.721.805-2.113,1.362-2.335.165-.365.143-.663.89-7.761.052-.645.195-.941.524-1.471.591-1.1,1.877-2.523,1.613-2.618.789-1.043,1.245-1.344.387-.59.351-.7L317,140.8l.317-.671.2-.592.048-.454-.1-1.271.113-1.351,2.043,2.527.589.514.186.216.2.3.387.889.126.231.329.423,1.106,1.164.542.425.832.509.53.255,10.284,3.123,1.184.539,3.838-.571,2.263.126.424-.084.6-.19,8.515-3.736.794-.491,1.148-.368.534-.067,2.692-.03.078.315.02.694-.154.263-.278.255-.148.369-.3.138-.1.283.214.338-.144.949-.048,1.123.184.346.858.889.3.4.089.338.02.644.1.326.633.7.113.075,1.165,1.643.987.174.625.677.384.965,1.246,4.724.1.657.3.111,1.332.759.676.655.338.422.262.569.271.1.314.075.255.15.091.2.191.645.8,1.554.252.229.007.138-.04.039-.08,0-.1.021,1.239,1.022.534.683-.039.682.214.178.191.356.136.4.05.281.114.106.63.889,1.326,1.421.325.68.28.167.321.137.232.173.134.423-.018.351.091.24.469.089.477.244.928,1.141.607.347-.039.2.039.258v.19l-.057.26.209.2.332.08.3-.082.241.469.614.273,1.26.339,1.979,1.819.639,1.349.335.308.2.323.61,1.453.061.381v.2l.136.243.107.613.139.243v.2H382.3l-.32-.7-.659-.4-.746-.281-.582-.346H379.8l-.171.451-.072.266.054.232.189.346.532.55.294.392.127.479.18.253.4-.122.4-.185.18.054-.041.431-.109.455-.184.423-.255.329.111.112.15.2.12.1.505.372.18.059.082.125.271.581.125.175v.215l-.294-.247-.662-.849h-.207v.233l.1.168.109.283h-.207l-.175-.616-.493.052-.541.436-.3.539.653.341.464.619.794,1.409-.109.2-.071.254-.036.3.025.341.464.343,1.221.559.414.387.082.287.036.69.089.314.189.263.473.509.2.313.177.638.2,1.4.191.436.926.885,1.078.735,1.183.573.55.39.364.539.059.329-.059,1.192-.064.1-.255.21-.063.115.018.184.139.273.034.186.028.694.118.538.291.432.525.372.48.451.509.692.2.521-.418-.056,0,.5.2.429.56.781.239.474.352.929.268.426.355.286.4.217.339.236.143.341.184.992.025.5-.209.346-.459.024-.3-.29-.255-.107-.318.589-.068.414v.557l.054.55.109.411.007.811-.552,1.9.259.91.391.328.9.279.441.264.291.437.277.966.907,1.2.4.856.955,2.754.414.823.568.873.373.785.675,1.006,2.361,5.463,1.091,1.608,1.053,2.675,2.2,3.065.209.4.273.879,1.874,2.8,1.019,1.116.232.329,2.428,4.824.382,1.467.677,1.31.294,1.579.505.856,1.212,1.538.168.386.264.9.173.419.837,1.289.334,1.321,1.294,2.247,2.4,4.179.109.99.3.836.452.547.555.659.091.564.025,1.152.075.578.157.46.225.345.323.286.441.285.723.67.482.883.651,2.415.155.4.487.8.532.977.4.346.011.5-.453.947,0,.844,1.151.447,1.39,2.626,3.777,2.884.593.714,1.028,2.967.757.826,1.064,1.534.466-.071-.208-.425-.26-.425.283-.048.567.59.779.33,1.015,1.061.4.849.071.9.848.518.873-.164.684.189.731.236.589.307.424.448.589,1.368.5.661-.189.282-.424-.59-.566-.613-.4-.024-1.014.47-.425.211-.566-.236-.518-.212-.518-.094-.377.047-.424-.071-.519-.212-.189-.259-.32-.378-.289-.1-.025-.155-.427-.193-.6-.163-.252.187-.383.716-.205.911.19,1.46-.258,1.272-.186.929.236.777.517.116.235.376-.023.447-.09.218.044.511.024.353.048.682-.131,1.264-.052,2.648-.061.479-.273.847-.063.461.109.446.259.461.6.862.48.895.173.474.109.5-.031,1.439.219,1.465.258,1.115.2,1,1.3,2.227.394.862.544,1.129.368,2.767.2.485.566,1.047,1.167,1.46.743.411-.336-.471-.789-1.392.546.017.357.273.244.444.189.527.3,1.491.084.241.457.322.232.34.2.378.361.427.5.661,1.073.827,1.012.411.5.166.082.116.355.251.382.2.416.127,1.555.11,2.251.438,2.156.727.791.491,1.358,1.3.443.731.163,1.4.477.919.831.741.876.661.429.2.415.177-.089-.474h.148l.593.681-.147.859.475,1.244,1.9.858.919.533.622.415,1.69,1.422,2.526,2.428.532.287.414-.04.1-.18.054-.188.1-.113.225.059.484.317.227.206.148.207.384.906.246.359.42.392,1.081.656.655.241.106,1.093-.021.373-.184.323-.225.3,0,.029H461.814l-6.5,0h-13l-6.5,0H416.3l-6.5,0-6.5,0H353.04ZM393.014,215.9l.432-.021,0,0,.139.019.555,1.2.209.627.018.734-.391-.378-.191-.432Zm1.44-22.593.612.235.18.536.1.579.359.372v.195l-.2-.031-.366-.059-.5-.582-.166-.192-.593-.191L393.6,194l-.266-.323-.285-.213h0l-.63.305-.259-.212-.2-.37-.109-.333.157-.2.184-.13.2-.064.232-.013.634.084.218.141.246.159.225.2.143.124Z" transform="translate(-133.935 -59.87)" fill="none" stroke="#fff" stroke-linecap="round" stroke-linejoin="round" stroke-width="1"/>
        </g>
      </g>
      <path id="Path_798" data-name="Path 798" d="M11.43,1.66l-.783,1.12L9.622,5.566,5.082,9.3l-.344,1.039-.009,1.2.277,2.75.026,2.677.647,3.488.194.66.979,2.023L7.216,24.8l1.219,2.616.381,1.311-.176,1.123L8.221,30.96l-.346,1.3L7.58,34.048l-.846,2.236-.093.645-.263,1.1-.546,1.112L4.2,41.627l-.846.865-.757.965-.265.451-.468,1.11-1.158,2.1L.259,48.253.25,49.5l.251.7.789,1.429L3.7,57.674l.127.725-.035.639L3.32,60.718l.188,1.34L4.94,64.481l.4,1.323,0,.782-.251,2.328.063,1.241.277,1.11L7.747,76.9l.494,1.721.194,1.843V128.6h.524l64.96-.044L86,102.721l.768-1.178,1.321-1.459,2.078-.841,22.157-5.8,5.64-4.268L136.115,70.8l21.74-13.361L139.5,46.015l-1.309-2.754-.75-21.821v-.025l-1.166.606-1.482,1.115-4.123,2.007L126.847,27l-.83.157-4.5.2-4.855-2.569-.521-.158-.191-.143-.109-.3-.194-.869-.168-.183-.677-.094-.546-.23-.994-.566L108.3,20.462l-.469-.255-.3-.117-.376-.072-1,.016-.245-.138-.335-.352-.434-.312-.5-.23-.541-.1-.639.122-1.215.608-.566.14-.539-.07-1.194-.3-.637-.07-.83.1-.349-.1-.227-.159-.222-.215-.253-.191-.328-.084-5.014.008L90.745,18.5l-.832-.5-.08-.268-.112-1.07-.491-1.182-.08-.267-.038-.64-.146-.463-.291-.221-.48.076-3.248,1.59-1.653.3-1.41-.75-.619.33-.623-.126-.7-.287L78.2,14.743l-.887-.3-.8-.457-.668-.572-.282-.451-.277-.978-.2-.368-.075-.191-.041-.492-.082-.1-.141-.075-.128-.181-.209-.415-.061-.229.052-.12.009-.117L74.2,9.472l-.2-.134L73.8,9.28l-1.751.032-.332-.042-.114.13-.268.166-.173.15-.455-.342-.7-.2-1.891-.2-1.76-.6L65.6,7.929l-.314-.072-.259-.018-.282-.12-.387-.368-.477-.319-.492.047-1.014.384-1.283-.011-1.147-.359-2-.972-.566-.057-1.391.1-.443-.155-.464-.256L47.021,4.664l-11.047-3.1-2.738-.141-1.251.2-5.242,1.78L22.2,4.711l-.812.093-.689.179-.512.3-.341-.064-.323-.15-.269-.084-1.277.192-.578,0-1.08-.561L14.9,4.519l-.6-.168-.5-.659-.31-1.049L13.134.5l.04-.25Z" transform="translate(-0.11 -0.11)" fill="#ddd"/>
      <g id="Group_305" data-name="Group 305">
        <g id="Group_304" data-name="Group 304" clip-path="url(#clip-path)">
          <path id="Path_799" data-name="Path 799" d="M8.435,115V80.462l-.194-1.843L7.747,76.9,5.431,71.265l-.277-1.11L5.09,68.914l.251-2.328,0-.782-.4-1.322L3.508,62.058l-.188-1.34.468-1.68.035-.639L3.7,57.675,1.289,51.627.5,50.2.25,49.5l.008-1.248.448-1.136,1.158-2.1.468-1.11.265-.452.757-.965.846-.865,1.632-2.489.546-1.112.263-1.1.092-.645.846-2.236.295-1.787.346-1.3.419-1.115.176-1.123-.381-1.311L7.216,24.8l-.364-1.662-.979-2.023-.194-.661-.647-3.487-.026-2.677-.277-2.75.009-1.2L5.081,9.3l4.54-3.735,1.025-2.786.783-1.121L13.175.25,13.134.5l.346,2.143.309,1.048.5.659.605.168,1.421.088,1.08.561.578,0,1.278-.192.268.084.323.151.341.063.512-.3.689-.178.812-.094,4.544-1.318,5.242-1.779,1.251-.2,2.738.141L47.021,4.664l8.061,1.087.464.256.443.154,1.391-.1.566.058,2,.972,1.146.36,1.283.011,1.014-.384.491-.047.478.319.387.368.282.12.259.019.314.072.764.446,1.76.6,1.892.2.7.2.455.342.173-.151.268-.166.114-.129.332.041L73.8,9.28,74,9.338l.2.133.209.226-.009.117-.053.12.062.229.209.415.127.181.141.075.081.1.041.491.075.192.2.367.277.978.282.451.668.572.805.457.887.3,1.746.267.7.287.623.126.619-.329,1.41.749,1.653-.295,3.248-1.59.48-.077.291.221.146.463.039.641.079.267.491,1.181.112,1.07.08.268.832.5,1.346.194,5.014-.008.327.084.253.191.223.216.227.159.348.1.83-.1.636.071,1.194.3.539.071.566-.141,1.215-.608.639-.122.541.1.5.23.434.312.335.351.246.138,1-.016.375.071.3.117.469.255,4.964,1.781.994.566.546.229.678.094.168.183.194.869.109.3.191.143.52.158,4.855,2.568,4.5-.2.83-.156,3.822-1.857,4.123-2.007,1.482-1.115,1.167-.606v.025l.749,21.821,1.309,2.754,18.355,11.424L136.115,70.8,117.964,89.171l-5.64,4.268-22.157,5.8-2.078.84-1.321,1.459L86,102.721,73.919,128.553l-64.96.044H8.435V115Z" transform="translate(-0.11 -0.11)" fill="none" stroke="#fff" stroke-linecap="round" stroke-linejoin="round" stroke-width="1"/>
        </g>
      </g>
      <path id="Path_800" data-name="Path 800" d="M379.612,96.351l-.093-.148-.641-.665-.587-.287.141-.313.291-.3.155-.1,0-.9-.359-.628-1.144-1.134.247-.165.109-.151-.023-.152-.159-.173.159-.059.055-.059-.055-.061-.159-.06-.114-.192-.132-.176-.154-.155-.053-.129.032-.083.093-.067.112-.052.216-.029v-.2l-.066-.236V89.49l.066-.276h-.175l-.361.784-.032.343.073.255.154.178.136.235.03.425h-.207l-.066-.408-.218-.222-.314-.015-.355.2-.464-.173-.546.353-.475.594-.25.547-.031.592.17.48.393.336.63.152-.5.411-2.335,3.29-.139.255-.284.309-.808,1.485-.163.524-.019,1.33-.163.543-.389.442v.239l.3.239.316.442.252.452.228.678.3.336,1.424.927.355.3L375.3,107.6l.873.528.794.827.677.921.286.629.109.789.282,1.056.369.986.382.58v.2l-.1.572.768,3.145-2.691.029-.534.068-1.148.368-.794.491-8.516,3.736-.6.19-.425.084-2.263-.126-3.838.571-1.184-.539,1.775-24.639-.1-1.494.208-2.878-.6-6.626-.732-3.15-.034-1.84,10.068-.342,2.416.189.814.542.39.163.5.149,1.444.222.351,0,.143-.034.819-.383.123-.076,1.1-1.041.217-.123.9-.268.876-.077,5.307.375.529,3.005.344,6.571.247.677.242.437.208.3-5.669,3.983Z" transform="translate(-156.951 -35.537)" fill="#ddd"/>
      <path id="Path_801" data-name="Path 801" d="M379.612,96.351l-.093-.148-.641-.665-.587-.287.141-.313.291-.3.155-.1,0-.9-.359-.628-1.144-1.134.247-.165.109-.151-.023-.152-.159-.173.159-.059.055-.059-.055-.061-.159-.06-.114-.192-.132-.176-.154-.155-.053-.129.032-.083.093-.067.112-.052.216-.029v-.2l-.066-.236V89.49l.066-.276h-.175l-.361.784-.032.343.073.255.154.178.136.235.03.425h-.207l-.066-.408-.218-.222-.314-.015-.355.2-.464-.173-.546.353-.475.594-.25.547-.031.592.17.48.393.336.63.152-.5.411-2.335,3.29-.139.255-.284.309-.808,1.485-.163.524-.019,1.33-.163.543-.389.442v.239l.3.239.316.442.252.452.228.678.3.336,1.424.927.355.3L375.3,107.6l.873.528.794.827.677.921.286.629.109.789.282,1.056.369.986.382.58v.2l-.1.572.768,3.145-2.691.029-.534.068-1.148.368-.794.491-8.516,3.736-.6.19-.425.084-2.263-.126-3.838.571-1.184-.539,1.775-24.639-.1-1.494.208-2.878-.6-6.626-.732-3.15-.034-1.84,10.068-.342,2.416.189.814.542.39.163.5.149,1.444.222.351,0,.143-.034.819-.383.123-.076,1.1-1.041.217-.123.9-.268.876-.077,5.307.375.529,3.005.344,6.571.247.677.242.437.208.3-5.669,3.983Z" transform="translate(-156.951 -35.537)" fill="none" stroke="#fff" stroke-linecap="round" stroke-linejoin="round" stroke-width="1"/>
      <path id="Path_802" data-name="Path 802" d="M459.123,114.607l-.284.15-.237.18-.2.226-.2.3-.154.375-.091.33-.157.253-.357.139.1.029.08,0,.043.047-.013.162-.239.12-.184.167-.068.186.109.182-.266.051-.123.086.021.124.177.158-.326.313-.643,1.019-.136.135-.3.161-.139.121-.114.192-.089.189-.134.172-.234.146v.2l.243.442-.093.459-.218.444-.143.406v1.65l-.15.392-.323.3-.327.226-.15.187-.032.45-.1.511-.175.493-.259.4.068.371-.068,1.934.057.307.277.4.062.385-.084.374-.209.177-.255.095-.625.407-.1.171-.082.424.018.195.141.65.031,1.9-.745.543v.2l.081.288.082.434v.465l-.163.376.1.113.091.144.173.378-.255.171-.043.175.062.195.047.231-.061.335-.13.217-.13.159-.061.159-.15.564-.654.928-.389,1.471-1.124,1.7-.357.909-.027.084,0,.08-.032.049-.132-.018.364.975-.336.621-.637.479-.552.551.082.067.025.014.069.155-.38.187-.207.418-.264,1.412-.1.349-.33.531-.055.021-.086.361-.4.784-.091.381.027.534.077.414.123.351.154.346v.2l-.214.533.23.475.369.436.245.511.262.252.08.174,0,.235-.073.134-.075.092-.039.1-.023.4-.255,1.112-.332.887.483.887-.464,2.231.209.237-.727.109-.227.107-.091.179-.086.294-.123.271-.364.224-.171.459-.232.1-.211.027-.387.127-.275.043.057.127,0,.031.027.011.118.066-.209.479-.287.957-.271.292h-.191l-.089-.167-.232-.08-.184-.144-.193.192-.189.7-.257.36.229.39-.352.34-.548.239-.375.091-.259-.022-.075.014.111.5.086.187,1.01.011v.2h-.209v.216l.145.13.1.145.141.372-.273-.139-.109-.076.039.118v.058l.034.024.136.015v.235h-.209l-.136-.277-.487-.658-.532-.56-.239-.2-.285-.145-.418-.141-2.692-.3-.671-.437-1.869-2.28-.143-.1-.241.023-1.594-1.471-.357-.191-.366-.024-.32.25-.387-.844-.186.2-.253-.306-.971-.83-.23-.112-.075-.047-.1-.14-.1-.271-.089-.13-.194-.154-.214-.09-.441-.1.016-.793-1.34-.831-.013-.56-.393-.345-.478-.65-.329-.686.057-.461-.134-.1-.113-.063-.091-.1-.06-.193h-.175v.237h-.207l-.086-.156-.246-.285-.05-.1-.414-1.548-.15-.232-.2.138-.216-.427-.657-.984-.271-.519-3.654-2.2-.18-.333-.121-.043-.643-1.15-.539-.5-.332-.384,0-.178-1.787-1.329-.291-.308-.125-.238-.089-.26-.232-.4-.307-.361-.325-.167.175-.237v.237h.2l-.191-1.047-.471-.077-.236.425.519.462-.469-.159-.3-.407-.154-.587-.116-1.279-.18-.542-.5-.959.277-.634.364-1.466.294-.728-.348-.424-.159-.252-.15-.641-.2-.154-.245-.093-.216-.178-.18-.589-.089-1.418-.114-.409v-.2l.244-.3.043-.276-.112-.735-.057-.169-.109-.46-.051-.478.132-.221.2-.21-.2-.432-.323-.352-.171.024-.057-.345-.168-.242-.239-.092-.28.1-.291-.375-.755-.411-.291-.285-.348-.8-.052-.189-.086-.175-.407-.325-.1-.155-.084-.055-.469-.72-.086-.06-.232-.107-.082-.051-.045-.094-.072-.259-.055-.086-1.26-1.311-.441-.145-.623-.349-.592-.433-.364-.386-.152-.506-.13-.661-.2-.575-.366-.246-.259-.1-.184-.253-.566-1.373-.048-.022.1-1.2-.107-.545-.753-.366-1.362-.979h.214l-.107-.23-.12-.116-.15-.051-.2-.042.068-.072.075-.064.048-.109-.018-.21h-.173l-.132.274-.066.251.041.212.157.158h-.378l.209-1.181.045-1.5-.327-1.315-.882-.625v-.2l.168-.386-.022-.454-.1-.475-.045-.46.068-.474.241-.657.054-.306-.021-.54-.068-.347-.109-.264-.166-.288-.682-.846-.1-.361-.034-.055,0,0,5.669-3.983,7.7-.369,17.829,3.163,7.155,3.858,5.671,2.148,3.24,1.746,3.491,1.274ZM450.729,163.5l0,0,.45.394.535.468v.236l-1.069.077-.978-.056-.814-.34-.557-.718-.05-.065.041-.43-.1-.616-.136-.248.1-.15.039-.031,0,0,.052.177,0-.005.1-.241.136-.193.164-.134.184-.076h0l.487.262.159.162.1.224-.725.148-.318.162-.1.337.132.139.112.117.473.051.814-.135.352-.125.061.062h.06l.132.209.123.239Zm4.1-.063.008,1.208-.768.335-.661-.215-.538-.476.558-.9Z" transform="translate(-174.045 -44.131)" fill="#ddd"/>
      <path id="Path_803" data-name="Path 803" d="M459.123,114.607l-.284.15-.237.18-.2.226-.2.3-.154.375-.091.33-.157.253-.357.139.1.029.08,0,.043.047-.013.162-.239.12-.184.167-.068.186.109.182-.266.051-.123.086.021.124.177.158-.326.313-.643,1.019-.136.135-.3.161-.139.121-.114.192-.089.189-.134.172-.234.146v.2l.243.442-.093.459-.218.444-.143.406v1.65l-.15.392-.323.3-.327.226-.15.187-.032.45-.1.511-.175.493-.259.4.068.371-.068,1.934.057.307.277.4.062.385-.084.374-.209.177-.255.095-.625.407-.1.171-.082.424.018.195.141.65.031,1.9-.745.543v.2l.081.288.082.434v.465l-.163.376.1.113.091.144.173.378-.255.171-.043.175.062.195.047.231-.061.335-.13.217-.13.159-.061.159-.15.564-.654.928-.389,1.471-1.124,1.7-.357.909-.027.084,0,.08-.032.049-.132-.018.364.975-.336.621-.637.479-.552.551.082.067.025.014.069.155-.38.187-.207.418-.264,1.412-.1.349-.33.531-.055.021-.086.361-.4.784-.091.381.027.534.077.414.123.351.154.346v.2l-.214.533.23.475.369.436.245.511.262.252.08.174,0,.235-.073.134-.075.092-.039.1-.023.4-.255,1.112-.332.887.483.887-.464,2.231.209.237-.727.109-.227.107-.091.179-.086.294-.123.271-.364.224-.171.459-.232.1-.211.027-.387.127-.275.043.057.127,0,.031.027.011.118.066-.209.479-.287.957-.271.292h-.191l-.089-.167-.232-.08-.184-.144-.193.192-.189.7-.257.36.229.39-.352.34-.548.239-.375.091-.259-.022-.075.014.111.5.086.187,1.01.011v.2h-.209v.216l.145.13.1.145.141.372-.273-.139-.109-.076.039.118v.058l.034.024.136.015v.235h-.209l-.136-.277-.487-.658-.532-.56-.239-.2-.285-.145-.418-.141-2.692-.3-.671-.437-1.869-2.28-.143-.1-.241.023-1.594-1.471-.357-.191-.366-.024-.32.25-.387-.844-.186.2-.253-.306-.971-.83-.23-.112-.075-.047-.1-.14-.1-.271-.089-.13-.194-.154-.214-.09-.441-.1.016-.793-1.34-.831-.013-.56-.393-.345-.478-.65-.329-.686.057-.461-.134-.1-.113-.063-.091-.1-.06-.193h-.175v.237h-.207l-.086-.156-.246-.285-.05-.1-.414-1.548-.15-.232-.2.138-.216-.427-.657-.984-.271-.519-3.654-2.2-.18-.333-.121-.043-.643-1.15-.539-.5-.332-.384,0-.178-1.787-1.329-.291-.308-.125-.238-.089-.26-.232-.4-.307-.361-.325-.167.175-.237v.237h.2l-.191-1.047-.471-.077-.236.425.519.462-.469-.159-.3-.407-.154-.587-.116-1.279-.18-.542-.5-.959.277-.634.364-1.466.294-.728-.348-.424-.159-.252-.15-.641-.2-.154-.245-.093-.216-.178-.18-.589-.089-1.418-.114-.409v-.2l.244-.3.043-.276-.112-.735-.057-.169-.109-.46-.051-.478.132-.221.2-.21-.2-.432-.323-.352-.171.024-.057-.345-.168-.242-.239-.092-.28.1-.291-.375-.755-.411-.291-.285-.348-.8-.052-.189-.086-.175-.407-.325-.1-.155-.084-.055-.469-.72-.086-.06-.232-.107-.082-.051-.045-.094-.072-.259-.055-.086-1.26-1.311-.441-.145-.623-.349-.592-.433-.364-.386-.152-.506-.13-.661-.2-.575-.366-.246-.259-.1-.184-.253-.566-1.373-.048-.022.1-1.2-.107-.545-.753-.366-1.362-.979h.214l-.107-.23-.12-.116-.15-.051-.2-.042.068-.072.075-.064.048-.109-.018-.21h-.173l-.132.274-.066.251.041.212.157.158h-.378l.209-1.181.045-1.5-.327-1.315-.882-.625v-.2l.168-.386-.022-.454-.1-.475-.045-.46.068-.474.241-.657.054-.306-.021-.54-.068-.347-.109-.264-.166-.288-.682-.846-.1-.361-.034-.055,0,0,5.669-3.983,7.7-.369,17.829,3.163,7.155,3.858,5.671,2.148,3.24,1.746,3.491,1.274ZM450.729,163.5l0,0,.45.394.535.468v.236l-1.069.077-.978-.056-.814-.34-.557-.718-.05-.065.041-.43-.1-.616-.136-.248.1-.15.039-.031,0,0,.052.177,0-.005.1-.241.136-.193.164-.134.184-.076h0l.487.262.159.162.1.224-.725.148-.318.162-.1.337.132.139.112.117.473.051.814-.135.352-.125.061.062h.06l.132.209.123.239Zm4.1-.063.008,1.208-.768.335-.661-.215-.538-.476.558-.9Z" transform="translate(-174.045 -44.131)" fill="none" stroke="#fff" stroke-linecap="round" stroke-linejoin="round" stroke-width="1"/>
      <path id="Path_804" data-name="Path 804" d="M377.029,21.712l1.226.241.373.286h.175l.316.041.068.547.291.419.416.276.859.227.321.307.525.678,1.187,1.153.519.4.791,1.37.735.662.834.525.95.294,0,.036L386.683,32l-8.127-4.73-.593.163-.052-1.8-.022-.036.068.017.139-.972.009-.457-.148-.558-.471-.6-.068-.285.348-.253-.421-.241-.32-.117v-.182Z" transform="translate(-165.41 -9.526)" fill="#ddd"/>
      <path id="Path_805" data-name="Path 805" d="M377.029,21.712l1.226.241.373.286h.175l.316.041.068.547.291.419.416.276.859.227.321.307.525.678,1.187,1.153.519.4.791,1.37.735.662.834.525.95.294,0,.036L386.683,32l-8.127-4.73-.593.163-.052-1.8-.022-.036.068.017.139-.972.009-.457-.148-.558-.471-.6-.068-.285.348-.253-.421-.241-.32-.117v-.182Z" transform="translate(-165.41 -9.526)" fill="none" stroke="#fff" stroke-linecap="round" stroke-linejoin="round" stroke-width="1"/>
      <path id="Path_806" data-name="Path 806" d="M354.253,15.959l-.271-.1-.571-.092-.341.124-.2-.549.347.043.369.029.669.133,0,.23v.182Zm-12.9-.048.041-.019-.054-.057-.036-.015-.036-.032-.046-.12.4.168.191.042.262.015.225.135.045.3,0,.3.107.136.314.086.437.216.418.3.273.317.214-.533.145-.219.213-.162-.116.3-.041.2.039.178.118.228h-.382V17.9h.382l-.091.072-.08.051-.048.1.027.219.132-.021.077-.058.063-.08.1-.084.036.054-.009.081.033.073.131.035V18.1h.191l-.138.462.134.31.232-.019.155-.51.325-.045.437-.465.532-.375.634.218h-.4V17.9l.4.2.075-.136.175-.14.127-.149.4.223v.2l-.116.145-.048.109-.045.436.312-.144.088-.08-.045.275-.055.184-.1.121-.2.09v.2l.189.279.014.352-.58.5V20.8l.3.013.232-.066.164-.149.081-.245h.173l.036.345.025.079-.852.564-.277.126-.07.005-.493-.017-.13.016-.109.035-.858.685-.061.028-.061.017-.333.031L344,22.578l-.4.037-.061.015-.191.085-.126.039-.065,0-.065-.007-.117-.029-.212-.09-.061-.014-.07,0-.125.02-.243.126-.052.018-.214.007-.13.019-.112.035-.061.01h-.139l-.191-.038-.139-.007-.134.012-.057.015-.143.18-1.028,1.94L338.4,26.7l-.265.547-.139.382-.182.327-.36.268-.213.1-.308.081-.246.1-.213.231-.013.377.1.514-.031.287-.164.292-.859.738-.277.363-.442.263-.355.048-.933-.118-.264.088-.433.068-.274-.012-.264-.052-1.363.028-.541.122-.45.167-.273.217-.231.277-.173.365-.082.452-.018.661.248,1.123.126.916.178.583.065.307.03.629-.13.654-.647.74-.611-.18-.238.171-.365.1-.381.018-.355-.274-.82-.312.425-1.485.04-.874-.329-1.5-.094-.878-.061-.242-.13-.067-.13-.02-.061-.1-.191-.8-.108-1.369-.267-.289-.136-.23-.074-.231.14-.139.636-.187.189-.113.117-.012.061-.091.015-.349-.062-.127-.155-.168-.186-.159-.17-.111.213-.037.116-.056.1-.066.148-.065-.377-.346L326,28l.285-.234.186-.274-.027-.411-.131-.256-.1-.257.065-.411.231-.332.3-.091.327-.047.3-.2.068-.144.179-.926-.048-.245.039-.169-.108-.08-.147-.023-.257.118-.273.048-.286.083-.239.141-.309.1-.077-.018-.26-.109-.173-.045-.161-.076-.143-.185.034-.259.265-.863.2-1.544.035-.063.074.045.052.052.182.062.465-.255.225-.182.316-.167.251,0,.169-.081-.095-.3-.472-.448-.161-.268-.03-.3.268-.735.1-.539-.03-.943L327,16.619l-.03-.567.091-1.451-.021-1.023-.251-1.976-.086-.317-.122-.3-.391-.451-.122-.172-.074-.269.026-.28.061-.287.1-.193.7-.573,2.037-1.1,0,0,.8.366,1.145.9,2.909,1.359.926.207.414-.013-.011.055-.091.3-.073.187-.139.23-.2.214-.959.717-.485.566-.07.125.031.182.229.164,1.262.2.164.084.078.212-.047.226.017.229.083.167.186.089.208-.056.208.038.352.3.2.1.186.016.131.128.194.416.1.057.186.064.277-.132.177-.164.07-.191-.008-.13-.087-.3.006-.1.046-.132.544-.223.147-.022.173,0,.117.249.043.227.077.269-.107.14v.244l.181.255-.093.148-.235,0-.234-.2h-.19l-.065.1-.051.116-.075.253.52.261-.048.374-.4.334L337.1,17l-.474.035-.007.132.16.273.026.452-.515.7-.471.154.064.4.112.3.2.152.342-.028,1.561-1.34.732-.393,1.245-.314.859-.579Zm8.351-2.878.293.137.7.789.17.127.4.186,1.112.884.283.186-.856-.185-2.763-1.742.157.016.122-.016.075.04.218.184-.069-.238-.129-.144-.017-.006,0,0,.1-.061Z" transform="translate(-142.639 -3.362)" fill="#ddd"/>
      <path id="Path_807" data-name="Path 807" d="M354.253,15.959l-.271-.1-.571-.092-.341.124-.2-.549.347.043.369.029.669.133,0,.23v.182Zm-12.9-.048.041-.019-.054-.057-.036-.015-.036-.032-.046-.12.4.168.191.042.262.015.225.135.045.3,0,.3.107.136.314.086.437.216.418.3.273.317.214-.533.145-.219.213-.162-.116.3-.041.2.039.178.118.228h-.382V17.9h.382l-.091.072-.08.051-.048.1.027.219.132-.021.077-.058.063-.08.1-.084.036.054-.009.081.033.073.131.035V18.1h.191l-.138.462.134.31.232-.019.155-.51.325-.045.437-.465.532-.375.634.218h-.4V17.9l.4.2.075-.136.175-.14.127-.149.4.223v.2l-.116.145-.048.109-.045.436.312-.144.088-.08-.045.275-.055.184-.1.121-.2.09v.2l.189.279.014.352-.58.5V20.8l.3.013.232-.066.164-.149.081-.245h.173l.036.345.025.079-.852.564-.277.126-.07.005-.493-.017-.13.016-.109.035-.858.685-.061.028-.061.017-.333.031L344,22.578l-.4.037-.061.015-.191.085-.126.039-.065,0-.065-.007-.117-.029-.212-.09-.061-.014-.07,0-.125.02-.243.126-.052.018-.214.007-.13.019-.112.035-.061.01h-.139l-.191-.038-.139-.007-.134.012-.057.015-.143.18-1.028,1.94L338.4,26.7l-.265.547-.139.382-.182.327-.36.268-.213.1-.308.081-.246.1-.213.231-.013.377.1.514-.031.287-.164.292-.859.738-.277.363-.442.263-.355.048-.933-.118-.264.088-.433.068-.274-.012-.264-.052-1.363.028-.541.122-.45.167-.273.217-.231.277-.173.365-.082.452-.018.661.248,1.123.126.916.178.583.065.307.03.629-.13.654-.647.74-.611-.18-.238.171-.365.1-.381.018-.355-.274-.82-.312.425-1.485.04-.874-.329-1.5-.094-.878-.061-.242-.13-.067-.13-.02-.061-.1-.191-.8-.108-1.369-.267-.289-.136-.23-.074-.231.14-.139.636-.187.189-.113.117-.012.061-.091.015-.349-.062-.127-.155-.168-.186-.159-.17-.111.213-.037.116-.056.1-.066.148-.065-.377-.346L326,28l.285-.234.186-.274-.027-.411-.131-.256-.1-.257.065-.411.231-.332.3-.091.327-.047.3-.2.068-.144.179-.926-.048-.245.039-.169-.108-.08-.147-.023-.257.118-.273.048-.286.083-.239.141-.309.1-.077-.018-.26-.109-.173-.045-.161-.076-.143-.185.034-.259.265-.863.2-1.544.035-.063.074.045.052.052.182.062.465-.255.225-.182.316-.167.251,0,.169-.081-.095-.3-.472-.448-.161-.268-.03-.3.268-.735.1-.539-.03-.943L327,16.619l-.03-.567.091-1.451-.021-1.023-.251-1.976-.086-.317-.122-.3-.391-.451-.122-.172-.074-.269.026-.28.061-.287.1-.193.7-.573,2.037-1.1,0,0,.8.366,1.145.9,2.909,1.359.926.207.414-.013-.011.055-.091.3-.073.187-.139.23-.2.214-.959.717-.485.566-.07.125.031.182.229.164,1.262.2.164.084.078.212-.047.226.017.229.083.167.186.089.208-.056.208.038.352.3.2.1.186.016.131.128.194.416.1.057.186.064.277-.132.177-.164.07-.191-.008-.13-.087-.3.006-.1.046-.132.544-.223.147-.022.173,0,.117.249.043.227.077.269-.107.14v.244l.181.255-.093.148-.235,0-.234-.2h-.19l-.065.1-.051.116-.075.253.52.261-.048.374-.4.334L337.1,17l-.474.035-.007.132.16.273.026.452-.515.7-.471.154.064.4.112.3.2.152.342-.028,1.561-1.34.732-.393,1.245-.314.859-.579Zm8.351-2.878.293.137.7.789.17.127.4.186,1.112.884.283.186-.856-.185-2.763-1.742.157.016.122-.016.075.04.218.184-.069-.238-.129-.144-.017-.006,0,0,.1-.061Z" transform="translate(-142.639 -3.362)" fill="none" stroke="#fff" stroke-linecap="round" stroke-linejoin="round" stroke-width="1"/>
      <path id="Path_808" data-name="Path 808" d="M352.332,31.317l-.1-.195.446-.016.143.016v-.243l-.125-.032-.025-.025.007-.048-.041-.085.041-.038.334-.218.016.2.079.04.125-.015.162.021-.109-.356.218-.232.307-.028.3.542.357.13.437.011.393-.066.671-.391.314-.576-.082-.6-.5-.478.671-.024.025.007.021.036.052,1.8-.714.352-1,.232-2.414.276Zm-2.5-1.352.061.189.168.184.266.1v.245l-.284.074-.2.126-.139.193-.1.273.141.064.223.159.268-.173.25-.047.23.064.191.155v.2h-.191v.242l.279.243.355.169.373.015.344-.225v-.2l-.41-.01-.279-.213-.173-.324-.091-.345.418.09.564.288.264.048.017.2.469.631.411.248.489.37.26.992.008.382-.039.4-.169.517-.827,1.041-.4,1.219-.389.666-.173.574-.351.8-.022,1.256.36,1.714-.29.846-.586,1.261-1.86,2.452-.862.892-.759.477-.814.028-.717.1-.424.15-.749.1-1.215.007-.091-.017-1.279-.4-.1.016-.056-.005-.173-.048-.126-.018-.074.047-.062.113-.008.336.131.343.312.4.316.26.273.372.26.815.1,1.177.828,3.365-6.964,4.807L331.2,57.536l-.273-.269-.231-.3-.238-.661-.251-.517-.208-.8-.268-.421-.277-.34-.262-.256-.2-.3-.273-.58-.477-.391-.2-.236.048-.9.355-1.143.043-.556.156-.365.312-.411.716-.5.615-.564.647-.74.13-.654-.03-.629-.065-.307-.177-.583-.127-.915-.247-1.124.017-.661.082-.452.173-.365.231-.277.273-.217.451-.167.542-.122,1.362-.028.264.052.275.012.433-.068.264-.088.933.118.355-.048.442-.263.277-.363.859-.737.164-.293.03-.287-.1-.514.013-.377.212-.232.247-.1.308-.081.214-.1.359-.268.182-.327.138-.382.264-.547,1.466-1.751,1.028-1.94.143-.18.056-.015.135-.012.139.008.19.038h.139l.061-.01.113-.035.13-.019.214-.007.052-.018.242-.126.126-.019.069,0,.061.015.213.09.117.029.065.007.065,0,.125-.039.191-.085.061-.015.4-.038,1.309-.312.334-.031.061-.017.061-.028.858-.685.109-.035.13-.016.494.017.069-.005.277-.126Z" transform="translate(-143.92 -12.551)" fill="#ddd"/>
      <path id="Path_809" data-name="Path 809" d="M352.332,31.317l-.1-.195.446-.016.143.016v-.243l-.125-.032-.025-.025.007-.048-.041-.085.041-.038.334-.218.016.2.079.04.125-.015.162.021-.109-.356.218-.232.307-.028.3.542.357.13.437.011.393-.066.671-.391.314-.576-.082-.6-.5-.478.671-.024.025.007.021.036.052,1.8-.714.352-1,.232-2.414.276Zm-2.5-1.352.061.189.168.184.266.1v.245l-.284.074-.2.126-.139.193-.1.273.141.064.223.159.268-.173.25-.047.23.064.191.155v.2h-.191v.242l.279.243.355.169.373.015.344-.225v-.2l-.41-.01-.279-.213-.173-.324-.091-.345.418.09.564.288.264.048.017.2.469.631.411.248.489.37.26.992.008.382-.039.4-.169.517-.827,1.041-.4,1.219-.389.666-.173.574-.351.8-.022,1.256.36,1.714-.29.846-.586,1.261-1.86,2.452-.862.892-.759.477-.814.028-.717.1-.424.15-.749.1-1.215.007-.091-.017-1.279-.4-.1.016-.056-.005-.173-.048-.126-.018-.074.047-.062.113-.008.336.131.343.312.4.316.26.273.372.26.815.1,1.177.828,3.365-6.964,4.807L331.2,57.536l-.273-.269-.231-.3-.238-.661-.251-.517-.208-.8-.268-.421-.277-.34-.262-.256-.2-.3-.273-.58-.477-.391-.2-.236.048-.9.355-1.143.043-.556.156-.365.312-.411.716-.5.615-.564.647-.74.13-.654-.03-.629-.065-.307-.177-.583-.127-.915-.247-1.124.017-.661.082-.452.173-.365.231-.277.273-.217.451-.167.542-.122,1.362-.028.264.052.275.012.433-.068.264-.088.933.118.355-.048.442-.263.277-.363.859-.737.164-.293.03-.287-.1-.514.013-.377.212-.232.247-.1.308-.081.214-.1.359-.268.182-.327.138-.382.264-.547,1.466-1.751,1.028-1.94.143-.18.056-.015.135-.012.139.008.19.038h.139l.061-.01.113-.035.13-.019.214-.007.052-.018.242-.126.126-.019.069,0,.061.015.213.09.117.029.065.007.065,0,.125-.039.191-.085.061-.015.4-.038,1.309-.312.334-.031.061-.017.061-.028.858-.685.109-.035.13-.016.494.017.069-.005.277-.126Z" transform="translate(-143.92 -12.551)" fill="none" stroke="#fff" stroke-linecap="round" stroke-linejoin="round" stroke-width="1"/>
      <path id="Path_810" data-name="Path 810" d="M363.075,32.865l.1.02-.126-.251.007,0,2.414-.277,1.005-.231.713-.353.594-.163,8.127,4.73,1.143,11.283.061,2.885.091.666.1.434.056.127v.005l2.563,4.12,1.478,3.847-5.307-.375-.876.077-.9.268-.217.123-1.1,1.041-.123.076-.819.383-.143.034-.351,0-1.444-.222-.5-.149-.39-.163-.814-.542-2.416-.189-10.068.342-1.236-3.451-.829-3.365-.1-1.177-.26-.816-.273-.371-.316-.26-.312-.4-.131-.344.009-.336.062-.113.073-.047.126.017.173.048.056.005.1-.016,1.279.4.091.017,1.214-.007.749-.1.425-.15.716-.1.814-.027.759-.477.862-.892,1.859-2.452.587-1.26.29-.846-.359-1.714.021-1.256.351-.8.173-.575.39-.665.4-1.22.827-1.041.169-.517.039-.4-.008-.382-.26-.992-.49-.371-.411-.248-.469-.631Z" transform="translate(-154.643 -13.867)" fill="#ddd"/>
      <path id="Path_811" data-name="Path 811" d="M363.075,32.865l.1.02-.126-.251.007,0,2.414-.277,1.005-.231.713-.353.594-.163,8.127,4.73,1.143,11.283.061,2.885.091.666.1.434.056.127v.005l2.563,4.12,1.478,3.847-5.307-.375-.876.077-.9.268-.217.123-1.1,1.041-.123.076-.819.383-.143.034-.351,0-1.444-.222-.5-.149-.39-.163-.814-.542-2.416-.189-10.068.342-1.236-3.451-.829-3.365-.1-1.177-.26-.816-.273-.371-.316-.26-.312-.4-.131-.344.009-.336.062-.113.073-.047.126.017.173.048.056.005.1-.016,1.279.4.091.017,1.214-.007.749-.1.425-.15.716-.1.814-.027.759-.477.862-.892,1.859-2.452.587-1.26.29-.846-.359-1.714.021-1.256.351-.8.173-.575.39-.665.4-1.22.827-1.041.169-.517.039-.4-.008-.382-.26-.992-.49-.371-.411-.248-.469-.631Z" transform="translate(-154.643 -13.867)" fill="none" stroke="#fff" stroke-linecap="round" stroke-linejoin="round" stroke-width="1"/>
      <path id="Path_812" data-name="Path 812" d="M355.637,13.1l-.179-.062-.573-.064-.127-.117-.073-.149-.136-.136-.743-.4-.3-.256-.116.012h-.209l-.084-.443-.175-.388-.228-.312-.259-.217h.364l.341-.043-1.407-1.764-.3-.528-.4-.532-.319-.184-.009.14-.468-.22-.182.116-.114.328-.382-.225-.007.106.021.223-.014.1-.1-.068-.193-.071-.107-.065.012.257-.053.183-.132.232h.573l-.154.364.428.772-.082.449h.191v.205h-.191l.061.145.089.155.041.164h-.191l-.1-.4-.184-.3-.284-.181-.391-.029.1-.245-.111-.032-.2.219-.173.506.173.025.093-.04.116-.191.2.157.157.062.218-.013v.224h-.209V10.8l.109.2.161.136.218.08.294.016-.2.205-.285.072-.277-.066-.2-.211h-.191l.018.172-.052.039-.084-.006-.091.039.127.094.1.107.173.246-.391.5-.079.374.252.212.6.013v.245l-.373-.072-.3-.122-.255-.024-.232.218h-.173l-.186-.2-.187.017-.139.194-.057.332.113.164.2.117.041.117-.35.152v.2l.159.311-.2.116-.318.08-.236.2-.059.461.175.287.307.081.3-.141-.427,1.035-.859.579-1.245.314-.732.393-1.561,1.34-.342.027-.195-.152-.113-.3-.063-.4.471-.154.515-.7-.026-.451-.161-.273.007-.132.474-.036.543-.146.4-.335.048-.374-.52-.262.075-.253.051-.116.065-.1h.19l.234.2.234,0,.094-.148-.181-.255v-.244l.107-.14-.077-.269-.043-.227-.117-.248-.173,0-.147.022-.543.223-.046.132-.006.1.086.3.009.13-.07.191-.177.164-.277.132-.186-.064-.1-.057-.195-.416-.13-.129-.186-.015-.2-.1-.353-.3-.208-.038-.208.056-.186-.089-.083-.167-.017-.229.048-.226-.078-.212-.164-.084-1.262-.2-.23-.164-.03-.182.07-.125.485-.566.959-.717.2-.214.139-.23.073-.187.091-.3.011-.054.721-.024,4.216-1.216,2.5-1.434,1.019-.336,1.078.023.891.457.4.872.141.391.882,1.2.37.935.443.561.9.815.3.133.682.153.05.024-.2.154-.1.061Z" transform="translate(-148.871 -3.209)" fill="#ddd"/>
      <path id="Path_813" data-name="Path 813" d="M355.637,13.1l-.179-.062-.573-.064-.127-.117-.073-.149-.136-.136-.743-.4-.3-.256-.116.012h-.209l-.084-.443-.175-.388-.228-.312-.259-.217h.364l.341-.043-1.407-1.764-.3-.528-.4-.532-.319-.184-.009.14-.468-.22-.182.116-.114.328-.382-.225-.007.106.021.223-.014.1-.1-.068-.193-.071-.107-.065.012.257-.053.183-.132.232h.573l-.154.364.428.772-.082.449h.191v.205h-.191l.061.145.089.155.041.164h-.191l-.1-.4-.184-.3-.284-.181-.391-.029.1-.245-.111-.032-.2.219-.173.506.173.025.093-.04.116-.191.2.157.157.062.218-.013v.224h-.209V10.8l.109.2.161.136.218.08.294.016-.2.205-.285.072-.277-.066-.2-.211h-.191l.018.172-.052.039-.084-.006-.091.039.127.094.1.107.173.246-.391.5-.079.374.252.212.6.013v.245l-.373-.072-.3-.122-.255-.024-.232.218h-.173l-.186-.2-.187.017-.139.194-.057.332.113.164.2.117.041.117-.35.152v.2l.159.311-.2.116-.318.08-.236.2-.059.461.175.287.307.081.3-.141-.427,1.035-.859.579-1.245.314-.732.393-1.561,1.34-.342.027-.195-.152-.113-.3-.063-.4.471-.154.515-.7-.026-.451-.161-.273.007-.132.474-.036.543-.146.4-.335.048-.374-.52-.262.075-.253.051-.116.065-.1h.19l.234.2.234,0,.094-.148-.181-.255v-.244l.107-.14-.077-.269-.043-.227-.117-.248-.173,0-.147.022-.543.223-.046.132-.006.1.086.3.009.13-.07.191-.177.164-.277.132-.186-.064-.1-.057-.195-.416-.13-.129-.186-.015-.2-.1-.353-.3-.208-.038-.208.056-.186-.089-.083-.167-.017-.229.048-.226-.078-.212-.164-.084-1.262-.2-.23-.164-.03-.182.07-.125.485-.566.959-.717.2-.214.139-.23.073-.187.091-.3.011-.054.721-.024,4.216-1.216,2.5-1.434,1.019-.336,1.078.023.891.457.4.872.141.391.882,1.2.37.935.443.561.9.815.3.133.682.153.05.024-.2.154-.1.061Z" transform="translate(-148.871 -3.209)" fill="none" stroke="#fff" stroke-linecap="round" stroke-linejoin="round" stroke-width="1"/>
      <path id="Path_814" data-name="Path 814" d="M283.586,8.477l-.772-.59L282.4,6.92l.18-.578,1.019.576.755.575.86.357,1.009.115,1.21-.152,3.932-1.059,8.309-2.97v.224l-.423.06-2.581.977-2.16,1.244L293.026,7l-1.194.814-.157.074-.382.064-.225.086-1.06.744-.487.169-1.11.084-.241.141-.125,0-.425.648v.244l.575.156.2,0,.177-.16h.191l.423.249.784-.043.757-.235.341-.317.253-.526.559.153.585.485.323.457h.191l.177-.569.432-.573L294.1,8.7l.416-.213.25-.1.309.144.364.241.414.182.263-.033.36-.1.391-.039.336.176-.086.034-.077,0L297,9.02l.014.155.377.1.475-.155.475-.3.37-.337-.068-.035-.068.006-.043-.03.009-.147.1-.069.013-.03,0-.038.057-.106.958.424.189.248.259-.221.194-.258.311-.662-.163-.272.1-.216.448-.386.082-.2-.03-.168-.009-.152.164-.153.162-.039,1.016.077.264.1.466.308.075.124-.009.152.05.128.266.044.225-.064L303.9,6.7l.111-.219-.507-.256.18-.123.168-.061.191.029-.539-.745-1.126-.841-1.33-.578-1.262-.043.266-.152.693-.262,2.376-.361.873.1,2.578.821,3.6,1.647,0,0-2.037,1.1-.7.573-.1.192-.061.287-.026.28.074.269.121.173.391.451.121.3.087.318.251,1.975.022,1.023-.091,1.451.03.567.091.554.03.943-.1.538-.269.735.031.3.16.267.472.448.1.3-.169.081-.251,0-.317.167-.225.182-.465.255-.571-.548-.169-.1-.269-.08-.3-.027-.322.021-.32.154-.6.559-.3.01-.624-.281-1.5-.076-.226.29-.043.3v.334l.048.535-.022.187-.086.262-.121.289-.161.636-.247.281-.456.217-2.012.124-.246.076-.273.177-.313.153-.107.084-.028.053.045.119-.075.057-.212.1-.442-.051-.407.04-.482.2-.329.062-1.647-.6-.074-.047-.2-.066-.2.039-.259.64-.286-.487-.477-.476-.241-.189-.076-.278.088-.484-.012-.331-.126-.319-.384-.533-.079-.149-.2-.292-1.323-.731-1.286-1.9-.221-.236-.306-.108-.164-.1-.309-.432-.21-.121-.213.017-.111.09-.088.092-.143.022-.007.016-.478-.016,0-.188-.169-.887-.13-.283h-.191v.244h-.173l-.065-.1-.009-.04-.021-.03-.113-.074V15l.319-.336.247-.516.157-.625.056-.664-.03-.341-.082-.26-.126-.205-.161-.178-.109-.086-.237-.145-.121-.124-.221-.126-.159.141-.091.221-.016.12-.251-.1-.184-.164-.115-.233-.039-.313-.117-.34-.256-.146-.255-.067-.117-.107.017-.812-.052-.636-.267-.391-.462-.081Z" transform="translate(-123.895 -1.356)" fill="#ddd"/>
      <path id="Path_815" data-name="Path 815" d="M283.586,8.477l-.772-.59L282.4,6.92l.18-.578,1.019.576.755.575.86.357,1.009.115,1.21-.152,3.932-1.059,8.309-2.97v.224l-.423.06-2.581.977-2.16,1.244L293.026,7l-1.194.814-.157.074-.382.064-.225.086-1.06.744-.487.169-1.11.084-.241.141-.125,0-.425.648v.244l.575.156.2,0,.177-.16h.191l.423.249.784-.043.757-.235.341-.317.253-.526.559.153.585.485.323.457h.191l.177-.569.432-.573L294.1,8.7l.416-.213.25-.1.309.144.364.241.414.182.263-.033.36-.1.391-.039.336.176-.086.034-.077,0L297,9.02l.014.155.377.1.475-.155.475-.3.37-.337-.068-.035-.068.006-.043-.03.009-.147.1-.069.013-.03,0-.038.057-.106.958.424.189.248.259-.221.194-.258.311-.662-.163-.272.1-.216.448-.386.082-.2-.03-.168-.009-.152.164-.153.162-.039,1.016.077.264.1.466.308.075.124-.009.152.05.128.266.044.225-.064L303.9,6.7l.111-.219-.507-.256.18-.123.168-.061.191.029-.539-.745-1.126-.841-1.33-.578-1.262-.043.266-.152.693-.262,2.376-.361.873.1,2.578.821,3.6,1.647,0,0-2.037,1.1-.7.573-.1.192-.061.287-.026.28.074.269.121.173.391.451.121.3.087.318.251,1.975.022,1.023-.091,1.451.03.567.091.554.03.943-.1.538-.269.735.031.3.16.267.472.448.1.3-.169.081-.251,0-.317.167-.225.182-.465.255-.571-.548-.169-.1-.269-.08-.3-.027-.322.021-.32.154-.6.559-.3.01-.624-.281-1.5-.076-.226.29-.043.3v.334l.048.535-.022.187-.086.262-.121.289-.161.636-.247.281-.456.217-2.012.124-.246.076-.273.177-.313.153-.107.084-.028.053.045.119-.075.057-.212.1-.442-.051-.407.04-.482.2-.329.062-1.647-.6-.074-.047-.2-.066-.2.039-.259.64-.286-.487-.477-.476-.241-.189-.076-.278.088-.484-.012-.331-.126-.319-.384-.533-.079-.149-.2-.292-1.323-.731-1.286-1.9-.221-.236-.306-.108-.164-.1-.309-.432-.21-.121-.213.017-.111.09-.088.092-.143.022-.007.016-.478-.016,0-.188-.169-.887-.13-.283h-.191v.244h-.173l-.065-.1-.009-.04-.021-.03-.113-.074V15l.319-.336.247-.516.157-.625.056-.664-.03-.341-.082-.26-.126-.205-.161-.178-.109-.086-.237-.145-.121-.124-.221-.126-.159.141-.091.221-.016.12-.251-.1-.184-.164-.115-.233-.039-.313-.117-.34-.256-.146-.255-.067-.117-.107.017-.812-.052-.636-.267-.391-.462-.081Z" transform="translate(-123.895 -1.356)" fill="none" stroke="#fff" stroke-linecap="round" stroke-linejoin="round" stroke-width="1"/>
      <path id="Path_816" data-name="Path 816" d="M259.247,16.5l1.049.321,1.023.112-.229.145-.316.364-.235.138-.018.165.041.048h.086l.1.03-.335.225.1.254.3.24.3.175,1.162-.691-.144.373.155.184.241.049.13-.027.109-.218.844-.809.077.157.021.013.093.074.068-.189.059-.109.05-.133.03-.261h.175l-.014.351.057.266.134.18.2.1.112-.217.286-.878-.429-.222-.4.1-.414.21-.5.117v-.2l.086-.016.2.028.091-.012V16.7l-.45.14-1.649.084V16.7l1.037-.267.982-.555,1.708-1.542.6-1,.389-1.32.112-1.371-.237-1.14h.191l.139.628.248.613.387.44.564.109-.01-.008.013,0,.462.081.267.391.052.636-.017.812.117.107.255.067.256.146.117.34.039.313.116.233.184.164.251.1.016-.119.091-.221.159-.141.221.126.121.124.237.145.109.086.16.178.126.205.082.26.03.341-.056.664-.158.625-.246.516-.319.336v.2l.113.074.021.03.009.04.065.1h.173v-.244h.191l.13.283.169.887,0,.188.478.015.007-.015.143-.022.088-.092.111-.09.212-.018.211.122.309.432.164.1.306.108.221.236,1.286,1.9,1.323.731.2.293.079.149.384.534.126.319.012.331-.088.484.076.278.241.19.477.476.286.487-.335.223.058.187.665,1.035.136.537-.246.425-.374.434-.085.34.618.136.3.13.108.31-.022.374-.091.318-.13.192-.649.455.86-.18.4-.022.27.2-.042.306-.349.178-.736.2-.163.177-.273.378-.2.438.05.36.377.143.377-.122.29.007.117.527-.148.12-.281.428-.191.459.134.214.256.141.147.355.068.467.062,1.382.177.786.35.578.57.282v.241l-.317.135-.139.219-.007.263.081.269.147.171.182-.008.208-.04.225.08-.026.47-.139.426-.2.371-.208.3.38.73.139.368.053.341-.065.328-.126.422-.078.466.078.463.8.56.177.362-1.292.363-.186.445.182.459L266.806,59.162l-1.128,2.34L247.323,50.079l-1.31-2.755,1.665-4.053,1.236-1.316,4.574-2.161,1.006-.7.906-.981.694-1.067.754-1.44-.381-1.212-.4-.81-1.293-1.573-1.79-2.937-.2-.574-.082-.747.4-.784.511-.593.344-.572.017-.184-.253-.864-.555-.335-.177-.326-.113-.163-.026-.113-.035-.1-.035-.263.013-.13.035-.115.039-.049.139-.118,1.591-.716,1.9-1.13.316-.258.755-1.064,1.613-3.176Z" transform="translate(-107.932 -4.173)" fill="#ddd"/>
      <path id="Path_817" data-name="Path 817" d="M259.247,16.5l1.049.321,1.023.112-.229.145-.316.364-.235.138-.018.165.041.048h.086l.1.03-.335.225.1.254.3.24.3.175,1.162-.691-.144.373.155.184.241.049.13-.027.109-.218.844-.809.077.157.021.013.093.074.068-.189.059-.109.05-.133.03-.261h.175l-.014.351.057.266.134.18.2.1.112-.217.286-.878-.429-.222-.4.1-.414.21-.5.117v-.2l.086-.016.2.028.091-.012V16.7l-.45.14-1.649.084V16.7l1.037-.267.982-.555,1.708-1.542.6-1,.389-1.32.112-1.371-.237-1.14h.191l.139.628.248.613.387.44.564.109-.01-.008.013,0,.462.081.267.391.052.636-.017.812.117.107.255.067.256.146.117.34.039.313.116.233.184.164.251.1.016-.119.091-.221.159-.141.221.126.121.124.237.145.109.086.16.178.126.205.082.26.03.341-.056.664-.158.625-.246.516-.319.336v.2l.113.074.021.03.009.04.065.1h.173v-.244h.191l.13.283.169.887,0,.188.478.015.007-.015.143-.022.088-.092.111-.09.212-.018.211.122.309.432.164.1.306.108.221.236,1.286,1.9,1.323.731.2.293.079.149.384.534.126.319.012.331-.088.484.076.278.241.19.477.476.286.487-.335.223.058.187.665,1.035.136.537-.246.425-.374.434-.085.34.618.136.3.13.108.31-.022.374-.091.318-.13.192-.649.455.86-.18.4-.022.27.2-.042.306-.349.178-.736.2-.163.177-.273.378-.2.438.05.36.377.143.377-.122.29.007.117.527-.148.12-.281.428-.191.459.134.214.256.141.147.355.068.467.062,1.382.177.786.35.578.57.282v.241l-.317.135-.139.219-.007.263.081.269.147.171.182-.008.208-.04.225.08-.026.47-.139.426-.2.371-.208.3.38.73.139.368.053.341-.065.328-.126.422-.078.466.078.463.8.56.177.362-1.292.363-.186.445.182.459L266.806,59.162l-1.128,2.34L247.323,50.079l-1.31-2.755,1.665-4.053,1.236-1.316,4.574-2.161,1.006-.7.906-.981.694-1.067.754-1.44-.381-1.212-.4-.81-1.293-1.573-1.79-2.937-.2-.574-.082-.747.4-.784.511-.593.344-.572.017-.184-.253-.864-.555-.335-.177-.326-.113-.163-.026-.113-.035-.1-.035-.263.013-.13.035-.115.039-.049.139-.118,1.591-.716,1.9-1.13.316-.258.755-1.064,1.613-3.176Z" transform="translate(-107.932 -4.173)" fill="none" stroke="#fff" stroke-linecap="round" stroke-linejoin="round" stroke-width="1"/>
      <path id="Path_818" data-name="Path 818" d="M244.679,29.689l.159-.082.2-.322.214-.24,4.116-3.011.434-.861.778.184.812-.385,1.292-1.156-.25-.371-.107.024-.232.123.157-.331.218-.231.218-.007.17.346h.2l.32-.356,1.3-1.175.384-.253.368-.178.557-.78.228-.178.386-.076.221-.18.185-.221.266-.194-.089-.036h-.075l-.043-.044.016-.163.764-.425-.082.936.789.631.1.03-.065.2-1.613,3.176-.755,1.064-.316.258-1.9,1.13-1.591.716-.139.118-.039.05-.035.115-.013.131.035.262.035.1.026.114.113.163.177.326.555.335.253.863-.017.185-.344.572-.511.593-.4.784.083.746.2.574,1.79,2.937,1.292,1.573.4.81.381,1.213-.754,1.44-.695,1.066-.905.982L252.9,44l-4.574,2.161-1.236,1.316-1.665,4.053-.749-21.821Z" transform="translate(-107.347 -8.383)" fill="#ddd"/>
      <path id="Path_819" data-name="Path 819" d="M244.679,29.689l.159-.082.2-.322.214-.24,4.116-3.011.434-.861.778.184.812-.385,1.292-1.156-.25-.371-.107.024-.232.123.157-.331.218-.231.218-.007.17.346h.2l.32-.356,1.3-1.175.384-.253.368-.178.557-.78.228-.178.386-.076.221-.18.185-.221.266-.194-.089-.036h-.075l-.043-.044.016-.163.764-.425-.082.936.789.631.1.03-.065.2-1.613,3.176-.755,1.064-.316.258-1.9,1.13-1.591.716-.139.118-.039.05-.035.115-.013.131.035.262.035.1.026.114.113.163.177.326.555.335.253.863-.017.185-.344.572-.511.593-.4.784.083.746.2.574,1.79,2.937,1.292,1.573.4.81.381,1.213-.754,1.44-.695,1.066-.905.982L252.9,44l-4.574,2.161-1.236,1.316-1.665,4.053-.749-21.821Z" transform="translate(-107.347 -8.383)" fill="none" stroke="#fff" stroke-linecap="round" stroke-linejoin="round" stroke-width="1"/>
      <path id="Path_820" data-name="Path 820" d="M344.1,80.221l.035,1.84.732,3.15.6,6.626-.208,2.878-17.809.75-.227-.413.195-.379L327.6,94l0-1.221-.221-1.342-.351-1.217-.394-.84-.713-.828-.306-.483-.126-.591.46-3.452,1.916-.725.1-.063.071-.065.07-.084.055-.107.049-.135.056-.262.035-.093.048-.055.083-.022.108.017.177.088.108.07.126.018.169-.035.329-.148.173-.118.617-.277,1.379-.256,4.292-.194,6.964-4.807Z" transform="translate(-142.798 -33.681)" fill="#ddd"/>
      <path id="Path_821" data-name="Path 821" d="M344.1,80.221l.035,1.84.732,3.15.6,6.626-.208,2.878-17.809.75-.227-.413.195-.379L327.6,94l0-1.221-.221-1.342-.351-1.217-.394-.84-.713-.828-.306-.483-.126-.591.46-3.452,1.916-.725.1-.063.071-.065.07-.084.055-.107.049-.135.056-.262.035-.093.048-.055.083-.022.108.017.177.088.108.07.126.018.169-.035.329-.148.173-.118.617-.277,1.379-.256,4.292-.194,6.964-4.807Z" transform="translate(-142.798 -33.681)" fill="none" stroke="#fff" stroke-linecap="round" stroke-linejoin="round" stroke-width="1"/>
      <path id="Path_822" data-name="Path 822" d="M199.25,127.342l-4.531,11.927-3.552,4.71-4.231,3.158-12.921,6.826-1.991,1.508-1.4,2.114-2,4.368H131.5l12.08-25.832.768-1.178,1.321-1.459,2.078-.84,22.156-5.8,5.64-4.268L193.7,104.2l21.74-13.361,1.128-2.341,12.969-11.731.507.244.881-.633.749.191.208.121.042.292-.008.363.053.328.192.452.083.021.266.1.31.1.329.155.035.08.177.143.086.338.032.725.13.479.346.338.494.18.572.007.218-.092.387-.3.245-.065.225.072.38.317.333.163.691.571.328.191.435.25.59.628.364.187,1.093.128.277.165.163.248.075.307.013.3-.46,3.452.126.591.306.483.713.828.394.84.351,1.217.221,1.343,0,1.221-.179.677-.195.379.227.414,17.809-.75.1,1.494-1.775,24.639L248.2,117.554l-.53-.255-.832-.509-.542-.425-1.106-1.164-.329-.422-.126-.232-.387-.888-.2-.3-.186-.215-.589-.515-2.044-2.526.075-.369.026-.259-.008-.347-.075-.325-.134-.317-.264-.47-.19-.245-.239-.205-.251-.171-.417-.212-.832-.258-.719-.106-1.258.035-1.994-9.006-.785-.8-1.3-1.019-5.862.734-5.861,2.7-5.065,3.018-2.05,1.65-13.042,12.707-1.136,8.063Z" transform="translate(-57.694 -33.509)" fill="#ddd"/>
      <path id="Path_823" data-name="Path 823" d="M199.25,127.342l-4.531,11.927-3.552,4.71-4.231,3.158-12.921,6.826-1.991,1.508-1.4,2.114-2,4.368H131.5l12.08-25.832.768-1.178,1.321-1.459,2.078-.84,22.156-5.8,5.64-4.268L193.7,104.2l21.74-13.361,1.128-2.341,12.969-11.731.507.244.881-.633.749.191.208.121.042.292-.008.363.053.328.192.452.083.021.266.1.31.1.329.155.035.08.177.143.086.338.032.725.13.479.346.338.494.18.572.007.218-.092.387-.3.245-.065.225.072.38.317.333.163.691.571.328.191.435.25.59.628.364.187,1.093.128.277.165.163.248.075.307.013.3-.46,3.452.126.591.306.483.713.828.394.84.351,1.217.221,1.343,0,1.221-.179.677-.195.379.227.414,17.809-.75.1,1.494-1.775,24.639L248.2,117.554l-.53-.255-.832-.509-.542-.425-1.106-1.164-.329-.422-.126-.232-.387-.888-.2-.3-.186-.215-.589-.515-2.044-2.526.075-.369.026-.259-.008-.347-.075-.325-.134-.317-.264-.47-.19-.245-.239-.205-.251-.171-.417-.212-.832-.258-.719-.106-1.258.035-1.994-9.006-.785-.8-1.3-1.019-5.862.734-5.861,2.7-5.065,3.018-2.05,1.65-13.042,12.707-1.136,8.063Z" transform="translate(-57.694 -33.509)" fill="none" stroke="#fff" stroke-linecap="round" stroke-linejoin="round" stroke-width="1"/>
      <path id="Path_824" data-name="Path 824" d="M197.64,201.249l2-4.367,1.4-2.115,1.991-1.507,12.921-6.826,4.231-3.158,3.552-4.71,4.531-11.928,28.487-.69.5.538,4.405,1.543-.89,7.761-.143.663-.165.365-1.362,2.335-.805,2.113-.169.722-.065.569.039.344.282,1.434.121,1.368.061.364.121.372,1.509,2.967.437,1.265.148.862.231,2.986.161.712.645,1.687.139.613.126.963.021.742-.021.505-.5,3.016-2.983.361-.295-.054-1.634-.647-.182,0-.27.025-.892.2-.529.01-.759-.328.134-.385.329-.676Z" transform="translate(-86.709 -72.806)" fill="#ddd"/>
      <path id="Path_825" data-name="Path 825" d="M197.64,201.249l2-4.367,1.4-2.115,1.991-1.507,12.921-6.826,4.231-3.158,3.552-4.71,4.531-11.928,28.487-.69.5.538,4.405,1.543-.89,7.761-.143.663-.165.365-1.362,2.335-.805,2.113-.169.722-.065.569.039.344.282,1.434.121,1.368.061.364.121.372,1.509,2.967.437,1.265.148.862.231,2.986.161.712.645,1.687.139.613.126.963.021.742-.021.505-.5,3.016-2.983.361-.295-.054-1.634-.647-.182,0-.27.025-.892.2-.529.01-.759-.328.134-.385.329-.676Z" transform="translate(-86.709 -72.806)" fill="none" stroke="#fff" stroke-linecap="round" stroke-linejoin="round" stroke-width="1"/>
      <path id="Path_826" data-name="Path 826" d="M291.433,122.212l-1.119,1.129-1.08,2.136-1.144,1.252-.512,1.005-.883,1.339-1.9,2.091-2.351,1.223-11.637,3.28-1.323.112-1.861-1.338-12.153-2.247,13.042-12.707,2.05-1.65,5.066-3.018,5.861-2.7,5.863-.733,1.3,1.019.785.8Z" transform="translate(-112.081 -48.868)" fill="#ddd"/>
      <path id="Path_827" data-name="Path 827" d="M291.433,122.212l-1.119,1.129-1.08,2.136-1.144,1.252-.512,1.005-.883,1.339-1.9,2.091-2.351,1.223-11.637,3.28-1.323.112-1.861-1.338-12.153-2.247,13.042-12.707,2.05-1.65,5.066-3.018,5.861-2.7,5.863-.733,1.3,1.019.785.8Z" transform="translate(-112.081 -48.868)" fill="none" stroke="#fff" stroke-linecap="round" stroke-linejoin="round" stroke-width="1"/>
      <path id="Path_828" data-name="Path 828" d="M254.038,140.628l12.153,2.247,1.861,1.338,1.323-.112,11.637-3.28,2.351-1.222,1.9-2.092.884-1.338.512-1.006,1.144-1.251,1.08-2.136L290,130.646l1.258-.035.719.106.832.258.417.211.251.172.238.205.191.245.264.47.134.317.075.324.008.348-.026.259-.075.369-.113,1.35.1,1.271-.048.454-.2.592-.316.671-.494,1.317-.351.7-.387.59-1.245,1.344-.788,1.044-1.613,2.617-1.877,2.523-.591,1.1-.524,1.471-.195.94-.052.645-4.406-1.543-.5-.538-28.487.69.7-2.445Z" transform="translate(-110.648 -57.302)" fill="#ddd"/>
      <path id="Path_829" data-name="Path 829" d="M254.038,140.628l12.153,2.247,1.861,1.338,1.323-.112,11.637-3.28,2.351-1.222,1.9-2.092.884-1.338.512-1.006,1.144-1.251,1.08-2.136L290,130.646l1.258-.035.719.106.832.258.417.211.251.172.238.205.191.245.264.47.134.317.075.324.008.348-.026.259-.075.369-.113,1.35.1,1.271-.048.454-.2.592-.316.671-.494,1.317-.351.7-.387.59-1.245,1.344-.788,1.044-1.613,2.617-1.877,2.523-.591,1.1-.524,1.471-.195.94-.052.645-4.406-1.543-.5-.538-28.487.69.7-2.445Z" transform="translate(-110.648 -57.302)" fill="none" stroke="#fff" stroke-linecap="round" stroke-linejoin="round" stroke-width="1"/>
      <path id="Path_830" data-name="Path 830" d="M314.083,72.484l-.434-.25-.328-.191-.692-.571-.333-.163-.38-.317-.225-.072-.245.065-.387.3-.218.092-.572-.007-.494-.18-.346-.338-.13-.479-.031-.725-.087-.338L309,69.171l-.035-.08-.329-.155-.31-.1-.266-.1-.082-.021-.192-.452-.053-.328.008-.363-.042-.292-.208-.121-.749-.191-.881.633-.507-.244-.182-.459.186-.445,1.293-.363-.177-.362-.8-.56-.078-.463.078-.466.126-.422.065-.328-.053-.342-.139-.368-.38-.73.208-.3.2-.371.139-.426.026-.47-.226-.08-.208.04-.182.008-.148-.171-.081-.269.007-.263.139-.219.316-.135v-.241l-.57-.282-.349-.578-.178-.786-.062-1.382.358-.222.368-.239.286-.085,1.431-.174.281-.171.317-.149.3-.1L308,54.94l.321.032.29.126.455.547.238.1.227.031.264.336.13.039.5-.063.242.045.148.012.212-.015.131-.04.477-.233.082.017.1.1.572.963.086.195.07.107.149-.011.411-.081.984.12.342.123.4.217.208.143.182.176.061.231.126.24.231.17.585.538.217.382.6.39.306.417-.365.139-.249-.143-.182-.2-.159-.038-.163.239-.052.333.056.336.159.24v.2l-.78.663-.439.187-.03.035-.117.083.009.2.038.228-.033.177-.226.182-.466.086-.263.155-.262.331-.039.272.015.306-.1.437-.184.4-.076-.048-.09-.222-.222-.127-.255-.025-.025-.017.065.113.007.373.03.223.074.19-.025.2-.253.253-.295.141-.257.007-.611-.148.306.455.726.537.3.375.01.327-.1,1.441.205.225.082.511.007.911.117.371.528.743Z" transform="translate(-133.513 -24.103)" fill="#ddd"/>
      <path id="Path_831" data-name="Path 831" d="M314.083,72.484l-.434-.25-.328-.191-.692-.571-.333-.163-.38-.317-.225-.072-.245.065-.387.3-.218.092-.572-.007-.494-.18-.346-.338-.13-.479-.031-.725-.087-.338L309,69.171l-.035-.08-.329-.155-.31-.1-.266-.1-.082-.021-.192-.452-.053-.328.008-.363-.042-.292-.208-.121-.749-.191-.881.633-.507-.244-.182-.459.186-.445,1.293-.363-.177-.362-.8-.56-.078-.463.078-.466.126-.422.065-.328-.053-.342-.139-.368-.38-.73.208-.3.2-.371.139-.426.026-.47-.226-.08-.208.04-.182.008-.148-.171-.081-.269.007-.263.139-.219.316-.135v-.241l-.57-.282-.349-.578-.178-.786-.062-1.382.358-.222.368-.239.286-.085,1.431-.174.281-.171.317-.149.3-.1L308,54.94l.321.032.29.126.455.547.238.1.227.031.264.336.13.039.5-.063.242.045.148.012.212-.015.131-.04.477-.233.082.017.1.1.572.963.086.195.07.107.149-.011.411-.081.984.12.342.123.4.217.208.143.182.176.061.231.126.24.231.17.585.538.217.382.6.39.306.417-.365.139-.249-.143-.182-.2-.159-.038-.163.239-.052.333.056.336.159.24v.2l-.78.663-.439.187-.03.035-.117.083.009.2.038.228-.033.177-.226.182-.466.086-.263.155-.262.331-.039.272.015.306-.1.437-.184.4-.076-.048-.09-.222-.222-.127-.255-.025-.025-.017.065.113.007.373.03.223.074.19-.025.2-.253.253-.295.141-.257.007-.611-.148.306.455.726.537.3.375.01.327-.1,1.441.205.225.082.511.007.911.117.371.528.743Z" transform="translate(-133.513 -24.103)" fill="none" stroke="#fff" stroke-linecap="round" stroke-linejoin="round" stroke-width="1"/>
      <path id="Path_832" data-name="Path 832" d="M332.292,75.258,328,75.451l-1.379.257-.617.277-.173.118-.329.148-.169.035-.126-.018-.108-.07-.177-.088-.108-.017-.082.022-.047.055-.035.093-.057.261-.049.135-.055.107-.069.084-.071.065-.1.063-1.916.725-.013-.3-.075-.308-.163-.247-.277-.165-1.093-.128-.364-.187-.59-.628-.309-.552-.527-.743-.117-.371-.007-.911-.082-.511-.205-.225.1-1.441-.01-.327-.3-.375-.726-.537-.306-.454.611.148.257-.006.295-.141.253-.253.025-.2-.074-.19-.03-.223-.007-.373-.065-.113.025.017.255.025.222.127.09.223.076.048.184-.4.1-.437-.015-.306.039-.272.261-.332.263-.155.466-.086.226-.182.033-.177-.038-.228-.008-.2.117-.083.03-.035.439-.187.78-.663v-.2l-.159-.24-.056-.335.052-.334.163-.239.159.038.182.2.248.142.365-.139-.306-.418.071-.757.82.312.355.274.381-.017.365-.1.238-.171.611.181-.615.564-.716.5-.312.412-.156.365-.043.556-.355,1.142-.048.9.2.236.477.391.273.579.2.3.262.256.277.34.268.421.208.8.251.518.239.661.231.3.273.269Z" transform="translate(-139.192 -27.362)" fill="#ddd"/>
      <path id="Path_833" data-name="Path 833" d="M332.292,75.258,328,75.451l-1.379.257-.617.277-.173.118-.329.148-.169.035-.126-.018-.108-.07-.177-.088-.108-.017-.082.022-.047.055-.035.093-.057.261-.049.135-.055.107-.069.084-.071.065-.1.063-1.916.725-.013-.3-.075-.308-.163-.247-.277-.165-1.093-.128-.364-.187-.59-.628-.309-.552-.527-.743-.117-.371-.007-.911-.082-.511-.205-.225.1-1.441-.01-.327-.3-.375-.726-.537-.306-.454.611.148.257-.006.295-.141.253-.253.025-.2-.074-.19-.03-.223-.007-.373-.065-.113.025.017.255.025.222.127.09.223.076.048.184-.4.1-.437-.015-.306.039-.272.261-.332.263-.155.466-.086.226-.182.033-.177-.038-.228-.008-.2.117-.083.03-.035.439-.187.78-.663v-.2l-.159-.24-.056-.335.052-.334.163-.239.159.038.182.2.248.142.365-.139-.306-.418.071-.757.82.312.355.274.381-.017.365-.1.238-.171.611.181-.615.564-.716.5-.312.412-.156.365-.043.556-.355,1.142-.048.9.2.236.477.391.273.579.2.3.262.256.277.34.268.421.208.8.251.518.239.661.231.3.273.269Z" transform="translate(-139.192 -27.362)" fill="none" stroke="#fff" stroke-linecap="round" stroke-linejoin="round" stroke-width="1"/>
      <path id="Path_834" data-name="Path 834" d="M316.068,49.263l-.6-.389-.217-.382-.585-.539-.231-.169-.125-.24-.061-.231-.182-.176L313.859,47l-.4-.217-.342-.122-.985-.12-.411.081-.149.011-.069-.108-.087-.195-.571-.963-.1-.1-.082-.016-.477.233-.131.04-.213.015-.147-.012-.242-.045-.5.063-.13-.038-.264-.336-.227-.031-.238-.1-.455-.546-.29-.126-.321-.032-.331.051-.3.1-.316.148-.282.172-1.431.173-.286.085-.368.239-.358.222-.068-.467-.147-.355-.255-.141-.135-.214.191-.46.282-.428.147-.12-.117-.526-.29-.008-.377.123-.377-.143-.05-.359.2-.439.273-.377.163-.177.736-.2.35-.178.042-.306-.27-.2-.4.023-.861.18.65-.455.13-.192.091-.318.021-.374-.108-.309-.3-.13-.618-.136.085-.339.374-.434.245-.425-.136-.537-.664-1.034-.058-.188.335-.223.258-.64.2-.039.2.066.074.047,1.647.6.329-.062.482-.2.407-.04.442.051.212-.1.075-.057-.045-.119.027-.053.107-.084.314-.153.273-.177.247-.076,2.012-.124.456-.216.247-.281.16-.636.121-.289.087-.262.021-.187-.048-.535v-.334l.043-.3.226-.29,1.5.076.624.282.3-.01.6-.559.321-.154.322-.021.3.028.269.079.169.1.572.548-.182-.062-.052-.052-.074-.045-.035.063-.2,1.544-.264.863-.035.259.143.185.161.076.173.045.26.109.078.018.309-.1.238-.141.286-.083.273-.048.255-.118.148.023.108.08-.039.169.048.245-.179.926-.068.144-.3.2-.326.047-.3.091-.231.332-.065.411.1.257.131.255.026.411-.186.274-.285.234-.1.258.377.346-.147.065-.1.066-.117.056-.212.037.169.111.186.159.155.168.062.127-.014.349-.061.091-.117.012-.189.113-.635.187-.14.139.074.231.136.23.267.289.108,1.369.19.8.061.1.13.02.13.067.061.242.094.878.329,1.5-.04.874-.426,1.485Z" transform="translate(-132.543 -13.502)" fill="#ddd"/>
      <path id="Path_835" data-name="Path 835" d="M316.068,49.263l-.6-.389-.217-.382-.585-.539-.231-.169-.125-.24-.061-.231-.182-.176L313.859,47l-.4-.217-.342-.122-.985-.12-.411.081-.149.011-.069-.108-.087-.195-.571-.963-.1-.1-.082-.016-.477.233-.131.04-.213.015-.147-.012-.242-.045-.5.063-.13-.038-.264-.336-.227-.031-.238-.1-.455-.546-.29-.126-.321-.032-.331.051-.3.1-.316.148-.282.172-1.431.173-.286.085-.368.239-.358.222-.068-.467-.147-.355-.255-.141-.135-.214.191-.46.282-.428.147-.12-.117-.526-.29-.008-.377.123-.377-.143-.05-.359.2-.439.273-.377.163-.177.736-.2.35-.178.042-.306-.27-.2-.4.023-.861.18.65-.455.13-.192.091-.318.021-.374-.108-.309-.3-.13-.618-.136.085-.339.374-.434.245-.425-.136-.537-.664-1.034-.058-.188.335-.223.258-.64.2-.039.2.066.074.047,1.647.6.329-.062.482-.2.407-.04.442.051.212-.1.075-.057-.045-.119.027-.053.107-.084.314-.153.273-.177.247-.076,2.012-.124.456-.216.247-.281.16-.636.121-.289.087-.262.021-.187-.048-.535v-.334l.043-.3.226-.29,1.5.076.624.282.3-.01.6-.559.321-.154.322-.021.3.028.269.079.169.1.572.548-.182-.062-.052-.052-.074-.045-.035.063-.2,1.544-.264.863-.035.259.143.185.161.076.173.045.26.109.078.018.309-.1.238-.141.286-.083.273-.048.255-.118.148.023.108.08-.039.169.048.245-.179.926-.068.144-.3.2-.326.047-.3.091-.231.332-.065.411.1.257.131.255.026.411-.186.274-.285.234-.1.258.377.346-.147.065-.1.066-.117.056-.212.037.169.111.186.159.155.168.062.127-.014.349-.061.091-.117.012-.189.113-.635.187-.14.139.074.231.136.23.267.289.108,1.369.19.8.061.1.13.02.13.067.061.242.094.878.329,1.5-.04.874-.426,1.485Z" transform="translate(-132.543 -13.502)" fill="none" stroke="#fff" stroke-linecap="round" stroke-linejoin="round" stroke-width="1"/>
      <path id="Path_836" data-name="Path 836" d="M347.636,294.613l-11.69-14.682-2.657-2.278-3.882-4.816,2.6-1.413.312-.25.264-.265.186-.257.186-.322.278-.384.217-.212.173-.107.308-.009.355.15.487.464.225.273.2.355.442,1,.23.38.274.339.32.267.411.169.32.1,1.119-.139,4.692,3.28,1.231,1.2.433,1.041.65,1.1.729,1.007.295.571.152.488.143,1.389.069.355.426.841.676,1.042.438.563.39.415.5.355.732.388.807.311,1.829.413.355.14.433.292.292.352.251.375.754,1.419,2.957,3.731-.754.811-.295.029-.378-.015-.662-.361-.6-.483-.556-.633-.823-1.381-.352-.354-.338-.059-.3.128-.155.136-.642.816-.348.222-.424.135-1.6.2-.294.15-.3.2Z" transform="translate(-144.519 -118.288)" fill="#ddd"/>
      <path id="Path_837" data-name="Path 837" d="M347.636,294.613l-11.69-14.682-2.657-2.278-3.882-4.816,2.6-1.413.312-.25.264-.265.186-.257.186-.322.278-.384.217-.212.173-.107.308-.009.355.15.487.464.225.273.2.355.442,1,.23.38.274.339.32.267.411.169.32.1,1.119-.139,4.692,3.28,1.231,1.2.433,1.041.65,1.1.729,1.007.295.571.152.488.143,1.389.069.355.426.841.676,1.042.438.563.39.415.5.355.732.388.807.311,1.829.413.355.14.433.292.292.352.251.375.754,1.419,2.957,3.731-.754.811-.295.029-.378-.015-.662-.361-.6-.483-.556-.633-.823-1.381-.352-.354-.338-.059-.3.128-.155.136-.642.816-.348.222-.424.135-1.6.2-.294.15-.3.2Z" transform="translate(-144.519 -118.288)" fill="none" stroke="#fff" stroke-linecap="round" stroke-linejoin="round" stroke-width="1"/>
      <path id="Path_838" data-name="Path 838" d="M361.885,311.164l1.1-1.026.3-.2.294-.15,1.6-.2.424-.135.348-.222.642-.816.155-.137.3-.128.338.059.352.354.823,1.382.556.633.6.483.662.361.378.015.295-.029.754-.812.864-.193,5.627-2.718,1.449-.273.816-.064,1.778.111,2.181.641.539.286.689.488.963.9,1.1,1.493.394.708.295.712.4,1.45.3,2.278.034,1.111-.048.728-.143.84-.26.824-1.427,2.971-.524.722-.617.7-2.7,2.443-1.838,2.055-.422.613-.295.614-.334,1.029-.052.446.052,1.642.481,2.319.312.868.356.659.247.319.888.833-.208.718-.008,1.64-.091.442-.121.285-.273.207-.234.132-.487.411-2.653-2.038-.581-.631-.264-.393-.26-.477-.42-1.117-.746-4.433-.953-3.752-.043-.476.03-.644.074-.326.126-.317.407-.6.821-.852,3.854-3.052.533-.608.205-.3.169-.313.126-.322.186-.688.217-1.462.1-.367.151-.36,1.175-2.025.273-.622.1-.318.065-.42v-.64l-.1-.63-.121-.326-.182-.33-.239-.308-.273-.26-.3-.209-.3-.133-.4-.074-.477-.021-1.284.149-.755.212-6.443,3.022-2.47.711-1.358.223-.79-.036-.511-.1-.407-.127-.686-.32-.489-.291-.282-.219Zm19.533,14.189.2-.495.274-.431.029-.253-.55-.274-.692,1.325.342.085Z" transform="translate(-158.768 -134.84)" fill="#ddd"/>
      <path id="Path_839" data-name="Path 839" d="M361.885,311.164l1.1-1.026.3-.2.294-.15,1.6-.2.424-.135.348-.222.642-.816.155-.137.3-.128.338.059.352.354.823,1.382.556.633.6.483.662.361.378.015.295-.029.754-.812.864-.193,5.627-2.718,1.449-.273.816-.064,1.778.111,2.181.641.539.286.689.488.963.9,1.1,1.493.394.708.295.712.4,1.45.3,2.278.034,1.111-.048.728-.143.84-.26.824-1.427,2.971-.524.722-.617.7-2.7,2.443-1.838,2.055-.422.613-.295.614-.334,1.029-.052.446.052,1.642.481,2.319.312.868.356.659.247.319.888.833-.208.718-.008,1.64-.091.442-.121.285-.273.207-.234.132-.487.411-2.653-2.038-.581-.631-.264-.393-.26-.477-.42-1.117-.746-4.433-.953-3.752-.043-.476.03-.644.074-.326.126-.317.407-.6.821-.852,3.854-3.052.533-.608.205-.3.169-.313.126-.322.186-.688.217-1.462.1-.367.151-.36,1.175-2.025.273-.622.1-.318.065-.42v-.64l-.1-.63-.121-.326-.182-.33-.239-.308-.273-.26-.3-.209-.3-.133-.4-.074-.477-.021-1.284.149-.755.212-6.443,3.022-2.47.711-1.358.223-.79-.036-.511-.1-.407-.127-.686-.32-.489-.291-.282-.219Zm19.533,14.189.2-.495.274-.431.029-.253-.55-.274-.692,1.325.342.085Z" transform="translate(-158.768 -134.84)" fill="none" stroke="#fff" stroke-linecap="round" stroke-linejoin="round" stroke-width="0.5"/>
      <path id="Path_840" data-name="Path 840" d="M298.017,230.745l.759.328.529-.01.892-.2.27-.025.182,0,1.634.647.295.054,2.983-.361-.1,2.786.043.923.091.429.269.879.177.415.2.356.249.324.273.246,2.449,1.421,2.836,1.208,1.769.554.395.211.434.3.615.556.342.453.251.453.443,1.272.217.464.208.278.2.19.641.392,1.158.977,1.752,1.807.4.485.645,1.091,2.988,6.263-1.119.139-.321-.1-.411-.17-.321-.267-.274-.339-.23-.38-.442-1-.2-.355-.225-.273-.487-.463-.355-.151-.308.01-.173.107-.217.212-.279.384-.186.322-.186.257-.264.265-.312.25-2.6,1.413-3.512-7.112-.342-.488-1.3-1.438-.524-.437-.452-.313-2.584-1.064-1.357-.8-3.713-3.5-.437-.538-.481-.712-2.589-5.558-.3-.993-.087-.861Z" transform="translate(-130.698 -101.233)" fill="#ddd"/>
      <path id="Path_841" data-name="Path 841" d="M298.017,230.745l.759.328.529-.01.892-.2.27-.025.182,0,1.634.647.295.054,2.983-.361-.1,2.786.043.923.091.429.269.879.177.415.2.356.249.324.273.246,2.449,1.421,2.836,1.208,1.769.554.395.211.434.3.615.556.342.453.251.453.443,1.272.217.464.208.278.2.19.641.392,1.158.977,1.752,1.807.4.485.645,1.091,2.988,6.263-1.119.139-.321-.1-.411-.17-.321-.267-.274-.339-.23-.38-.442-1-.2-.355-.225-.273-.487-.463-.355-.151-.308.01-.173.107-.217.212-.279.384-.186.322-.186.257-.264.265-.312.25-2.6,1.413-3.512-7.112-.342-.488-1.3-1.438-.524-.437-.452-.313-2.584-1.064-1.357-.8-3.713-3.5-.437-.538-.481-.712-2.589-5.558-.3-.993-.087-.861Z" transform="translate(-130.698 -101.233)" fill="none" stroke="#fff" stroke-linecap="round" stroke-linejoin="round" stroke-width="0.5"/>
      <path id="Path_842" data-name="Path 842" d="M396.109,338.3l-.4-.042-.342-.085.692-1.325.55.274-.029.253-.274.431Z" transform="translate(-173.458 -147.782)" fill="gray"/>
      <path id="Path_843" data-name="Path 843" d="M396.109,338.3l-.4-.042-.342-.085.692-1.325.55.274-.029.253-.274.431Z" transform="translate(-173.458 -147.782)" fill="none" stroke="#fff" stroke-linecap="round" stroke-linejoin="round" stroke-width="0.5"/>
    </g>
    <circle id="Ellipse_16" data-name="Ellipse 16" cx="23.715" cy="23.715" r="23.715" transform="translate(1018.923 2065.951)" fill="#0e3166" opacity="0.139"/>
    <path id="Icon_material-location-on" data-name="Icon material-location-on" d="M14.6,3a7.1,7.1,0,0,0-7.1,7.1c0,5.328,7.1,13.194,7.1,13.194s7.1-7.866,7.1-13.194A7.1,7.1,0,0,0,14.6,3Zm0,9.642A2.537,2.537,0,1,1,17.142,10.1,2.538,2.538,0,0,1,14.6,12.642Z" transform="translate(1027.423 2075.951)" fill="#ff730f"/>
  </g>
</svg>
