<svg xmlns="http://www.w3.org/2000/svg" width="15.729" height="15.725" viewBox="0 0 15.729 15.725">
  <path id="Icon_awesome-instagram" data-name="Icon awesome-instagram" d="M7.861,6.069A4.032,4.032,0,1,0,11.893,10.1,4.025,4.025,0,0,0,7.861,6.069Zm0,6.653A2.621,2.621,0,1,1,10.482,10.1,2.626,2.626,0,0,1,7.861,12.721ZM13,5.9a.94.94,0,1,1-.94-.94A.938.938,0,0,1,13,5.9Zm2.67.954A4.654,4.654,0,0,0,14.4,3.563,4.684,4.684,0,0,0,11.1,2.293c-1.3-.074-5.19-.074-6.488,0A4.678,4.678,0,0,0,1.32,3.56,4.669,4.669,0,0,0,.05,6.855c-.074,1.3-.074,5.19,0,6.488a4.654,4.654,0,0,0,1.27,3.295,4.69,4.69,0,0,0,3.295,1.27c1.3.074,5.19.074,6.488,0a4.654,4.654,0,0,0,3.295-1.27,4.684,4.684,0,0,0,1.27-3.295c.074-1.3.074-5.186,0-6.484Zm-1.677,7.877A2.654,2.654,0,0,1,12.5,16.23a17.33,17.33,0,0,1-4.635.316,17.466,17.466,0,0,1-4.635-.316,2.654,2.654,0,0,1-1.495-1.495A17.33,17.33,0,0,1,1.415,10.1a17.466,17.466,0,0,1,.316-4.635A2.654,2.654,0,0,1,3.226,3.97a17.33,17.33,0,0,1,4.635-.316A17.466,17.466,0,0,1,12.5,3.97a2.654,2.654,0,0,1,1.495,1.495,17.33,17.33,0,0,1,.316,4.635C14.307,11.244,14.4,13.7,13.991,14.736Z" transform="translate(0.005 -2.238)" fill="#ff730f"/>
</svg>
