<svg xmlns="http://www.w3.org/2000/svg" width="15.036" height="15.036" viewBox="0 0 15.036 15.036">
  <path id="Icon_awesome-linkedin-in" data-name="Icon awesome-linkedin-in" d="M3.366,15.036H.248V5H3.366ZM1.805,3.629A1.814,1.814,0,1,1,3.611,1.806,1.821,1.821,0,0,1,1.805,3.629ZM15.033,15.036H11.922V10.15c0-1.165-.023-2.658-1.621-2.658-1.621,0-1.869,1.265-1.869,2.574v4.971H5.318V5h2.99V6.367h.044A3.276,3.276,0,0,1,11.3,4.746c3.155,0,3.735,2.078,3.735,4.776v5.514Z" transform="translate(0 -0.001)" fill="#ff730f"/>
</svg>
